<svg width="44" height="1677" viewBox="0 0 44 1677" fill="none" xmlns="http://www.w3.org/2000/svg">
<g clip-path="url(#clip0_1013_98)">
<path fill-rule="evenodd" clip-rule="evenodd" d="M15.0282 23.25L14.3352 20.604H11.3269L10.6497 23.25H8.25562L11.2324 12.2565H14.5714L17.5482 23.25H15.0282ZM12.9019 14.5403H12.7759L11.7049 18.6983H13.9729L12.9019 14.5403Z" fill="url(#paint0_linear_1013_98)"/>
<path fill-rule="evenodd" clip-rule="evenodd" d="M18.0304 23.25V12.2565H22.2829C22.8184 12.2565 23.2961 12.3405 23.7161 12.5085C24.1361 12.666 24.4879 12.897 24.7714 13.2015C25.0654 13.506 25.2859 13.8735 25.4329 14.304C25.5799 14.7345 25.6534 15.2175 25.6534 15.753C25.6534 16.2885 25.5799 16.7715 25.4329 17.202C25.2859 17.6325 25.0654 18 24.7714 18.3045C24.4879 18.609 24.1361 18.8453 23.7161 19.0133C23.2961 19.1708 22.8184 19.2495 22.2829 19.2495H20.4086V23.25H18.0304ZM20.4086 17.3438H21.6844C22.2409 17.3438 22.6241 17.2388 22.8341 17.0288C23.0546 16.8188 23.1649 16.4723 23.1649 15.9893V15.5168C23.1649 15.0338 23.0546 14.6873 22.8341 14.4773C22.6241 14.2673 22.2409 14.1623 21.6844 14.1623H20.4086V17.3438Z" fill="url(#paint1_linear_1013_98)"/>
<path d="M26.671 21.5018V23.25H33.7585V21.5018H31.396V14.0048H33.7585V12.2565H26.671V14.0048H29.0335V21.5018H26.671Z" fill="url(#paint2_linear_1013_98)"/>
<path fill-rule="evenodd" clip-rule="evenodd" d="M4.05518 5.75C4.05518 4.7835 4.83868 4 5.80518 4H37.3052C38.2717 4 39.0552 4.7835 39.0552 5.75V30.25C39.0552 31.2165 38.2717 32 37.3052 32H5.80518C4.83868 32 4.05518 31.2165 4.05518 30.25V5.75ZM7.55518 28.5V7.5H35.5552V28.5H7.55518Z" fill="url(#paint3_linear_1013_98)"/>
<path d="M19.9188 68.2727C12.6697 68.2727 6.82791 74.0714 6.82791 81.1818C6.82791 85.4347 8.74372 89.1665 11.894 91.5041C12.6197 92.0426 12.7715 93.0675 12.2329 93.7933C11.6944 94.519 10.6695 94.671 9.94372 94.132C5.94131 91.1623 3.55518 86.4452 3.55518 81.1818C3.55518 72.2257 10.9007 65 19.9188 65C28.937 65 36.2825 72.2257 36.2825 81.1818C36.2825 82.0856 35.5498 82.8182 34.6461 82.8182C33.7424 82.8182 33.0097 82.0856 33.0097 81.1818C33.0097 74.0714 27.168 68.2727 19.9188 68.2727Z" fill="url(#paint4_linear_1013_98)"/>
<path fill-rule="evenodd" clip-rule="evenodd" d="M29.1324 73.7658C29.5512 74.2535 29.5683 74.9716 29.1792 75.4798C28.895 75.8559 27.2248 77.9639 25.5241 80.061C24.6698 81.1144 23.8029 82.1712 23.0943 83.0114C22.7402 83.4311 22.4226 83.8005 22.1642 84.0898C21.9203 84.3629 21.6917 84.6076 21.531 84.7423C20.8213 85.3368 19.9394 85.5816 19.1103 85.5237L19.096 85.5227C18.2421 85.448 17.4173 85.0513 16.8211 84.3417C16.2458 83.6568 15.9736 82.7878 16.0515 81.8976C16.1294 81.0073 16.5483 80.1988 17.2339 79.6242C17.5069 79.3945 18.2568 78.9121 19.1503 78.3566C20.0782 77.7796 21.2405 77.0759 22.3985 76.3837C24.688 75.0151 27.017 73.6576 27.4619 73.4316C28.0357 73.1349 28.7256 73.2859 29.1324 73.7658ZM22.7538 79.2022C22.5214 79.4814 22.2913 79.7559 22.0675 80.021C21.4808 80.716 20.9409 81.343 20.5207 81.8181C20.3104 82.0559 20.1326 82.2528 19.9954 82.3999C19.9266 82.4736 19.8707 82.5319 19.8275 82.5754C19.7897 82.6133 19.7708 82.6307 19.7662 82.635L19.7613 82.6391C19.5113 82.8487 19.1294 82.8157 18.9188 82.5653C18.8132 82.4396 18.7654 82.2865 18.779 82.1304C18.7933 81.9669 18.8659 81.83 18.9857 81.7317L18.9922 81.7263C19.1714 81.5761 20.3547 80.7505 21.8915 79.7547C22.1713 79.5734 22.4602 79.3882 22.7538 79.2022Z" fill="url(#paint5_linear_1013_98)"/>
<path fill-rule="evenodd" clip-rule="evenodd" d="M37.6821 92.8182C37.6821 93.0994 37.6646 93.3636 37.6295 93.6193L39.3907 94.966C39.5572 95.085 39.601 95.298 39.4958 95.486L37.8135 98.315C37.7084 98.503 37.4894 98.571 37.2966 98.503L35.2025 97.685C34.7732 98.009 34.3 98.281 33.7831 98.486L33.4677 100.651C33.4414 100.855 33.2661 101 33.0559 101H29.6913C29.481 101 29.3145 100.855 29.2707 100.651L28.9553 98.486C28.4384 98.281 27.974 98.009 27.5359 97.685L25.4418 98.503C25.249 98.563 25.03 98.503 24.9249 98.315L23.2426 95.486C23.1462 95.315 23.19 95.085 23.3477 94.966L25.1264 93.6193C25.0826 93.3636 25.065 93.0824 25.065 92.8182C25.065 92.554 25.1001 92.2727 25.1439 92.017L23.3652 90.6705C23.19 90.5511 23.155 90.3295 23.2601 90.1506L24.9336 87.321C25.0388 87.1335 25.2578 87.0653 25.4506 87.1335L27.5447 87.9517C27.974 87.6364 28.4471 87.3551 28.9641 87.1506L29.2795 84.9858C29.3145 84.7813 29.481 84.6364 29.6913 84.6364H33.0559C33.2661 84.6364 33.4414 84.7813 33.4764 84.9858L33.7919 87.1506C34.3088 87.3551 34.7732 87.6278 35.2113 87.9517L37.3054 87.1335C37.4981 87.0739 37.7172 87.1335 37.8223 87.321L39.5046 90.1506C39.601 90.321 39.5572 90.5511 39.3994 90.6705L37.6208 92.017C37.6646 92.2727 37.6821 92.5455 37.6821 92.8182ZM28.2193 92.8182C28.2193 94.506 29.6387 95.886 31.3736 95.886C33.1084 95.886 34.5278 94.506 34.5278 92.8182C34.5278 91.1307 33.1084 89.75 31.3736 89.75C29.6387 89.75 28.2193 91.1307 28.2193 92.8182Z" fill="url(#paint6_linear_1013_98)"/>
<path d="M8.2315 150.469C8.2315 143.233 14.1769 137.331 21.5549 137.331C28.9328 137.331 34.8783 143.233 34.8783 150.469C34.8783 154.798 32.9284 158.596 29.7223 160.975C28.9837 161.523 28.8292 162.566 29.3773 163.305C29.9254 164.044 30.9685 164.198 31.7072 163.65C35.7807 160.627 38.2092 155.826 38.2092 150.469C38.2092 141.354 30.7332 134 21.5549 134C12.3765 134 4.90063 141.354 4.90063 150.469C4.90063 155.826 7.32915 160.627 11.4025 163.65C12.1412 164.198 13.1843 164.044 13.7324 163.305C14.2805 162.566 14.126 161.523 13.3874 160.975C10.1813 158.596 8.2315 154.798 8.2315 150.469Z" fill="url(#paint7_linear_1013_98)"/>
<path fill-rule="evenodd" clip-rule="evenodd" d="M30.98 144.666C31.376 144.149 31.3587 143.418 30.9324 142.922C30.5184 142.433 29.8162 142.279 29.2322 142.581C28.7794 142.811 26.409 144.193 24.0788 145.586C22.9003 146.291 21.7174 147.007 20.7729 147.594C19.8636 148.159 19.1004 148.65 18.8225 148.884C18.1248 149.469 17.6984 150.292 17.6191 151.198C17.5399 152.104 17.8169 152.988 18.4024 153.685C19.0092 154.408 19.8486 154.811 20.7177 154.887L20.7323 154.888C21.5761 154.947 22.4737 154.698 23.1959 154.093C23.3595 153.956 23.5922 153.707 23.8404 153.429C24.1034 153.135 24.4267 152.759 24.787 152.331C25.5083 151.476 26.3906 150.401 27.26 149.329C28.9909 147.194 30.6908 145.049 30.98 144.666ZM23.7419 149.288C23.9697 149.018 24.204 148.739 24.4405 148.455C24.1417 148.644 23.8476 148.832 23.5629 149.017C21.9987 150.03 20.7944 150.871 20.612 151.024L20.6054 151.029C20.4835 151.129 20.4096 151.268 20.3951 151.435C20.3812 151.594 20.4299 151.75 20.5373 151.877C20.7517 152.132 21.1404 152.166 21.3948 151.953L21.3998 151.948C21.4045 151.944 21.4238 151.926 21.4622 151.888C21.5061 151.843 21.5631 151.784 21.6331 151.709C21.7727 151.559 21.9537 151.359 22.1678 151.117C22.5953 150.633 23.1449 149.995 23.7419 149.288Z" fill="url(#paint8_linear_1013_98)"/>
<path fill-rule="evenodd" clip-rule="evenodd" d="M22.8715 197.031C23.8213 197.269 24.3989 198.231 24.1613 199.181L17.9568 223.999C17.7194 224.949 16.757 225.527 15.8071 225.289C14.8572 225.052 14.2798 224.089 14.5172 223.139L20.7219 198.321C20.9592 197.371 21.9216 196.794 22.8715 197.031ZM14.0758 202.962C14.6875 203.726 14.5635 204.842 13.799 205.454L6.66566 211.16L13.799 216.867C14.5635 217.478 14.6875 218.594 14.0758 219.359C13.4642 220.123 12.3487 220.247 11.5842 219.635L2.72049 212.545C2.29998 212.208 2.05518 211.699 2.05518 211.16C2.05518 210.622 2.29998 210.112 2.72049 209.776L11.5842 202.685C12.3487 202.073 13.4642 202.197 14.0758 202.962ZM25.4891 202.962C26.1007 202.197 27.2163 202.073 27.9808 202.685L36.8445 209.776C37.6091 210.388 37.733 211.503 37.1214 212.268C36.5098 213.032 35.3942 213.156 34.6296 212.545L25.766 205.454C25.0014 204.842 24.8775 203.726 25.4891 202.962ZM39.0258 223.569C39.0258 223.874 39.0069 224.16 38.9689 224.437L40.8767 225.896C41.0572 226.025 41.1045 226.256 40.9907 226.459L39.1682 229.525C39.0544 229.728 38.817 229.802 38.6082 229.728L36.3396 228.841C35.8744 229.192 35.3619 229.488 34.8019 229.709L34.4602 232.055C34.4318 232.276 34.2419 232.433 34.0141 232.433H30.3691C30.1413 232.433 29.961 232.276 29.9135 232.055L29.5719 229.709C29.0119 229.488 28.5088 229.192 28.034 228.841L25.7655 229.728C25.5566 229.792 25.3194 229.728 25.2054 229.525L23.3831 226.459C23.2787 226.275 23.326 226.025 23.4969 225.896L25.4238 224.437C25.3763 224.16 25.3574 223.856 25.3574 223.569C25.3574 223.283 25.3953 222.979 25.4428 222.701L23.5159 221.243C23.326 221.113 23.2881 220.873 23.402 220.679L25.215 217.614C25.3288 217.411 25.5662 217.337 25.775 217.411L28.0436 218.297C28.5088 217.956 29.0212 217.651 29.5813 217.43L29.923 215.084C29.961 214.863 30.1413 214.706 30.3691 214.706H34.0141C34.2419 214.706 34.4318 214.863 34.4697 215.084L34.8113 217.43C35.3713 217.651 35.8744 217.946 36.3492 218.297L38.6177 217.411C38.8266 217.346 39.0638 217.411 39.1777 217.614L41.0001 220.679C41.1045 220.864 41.0572 221.113 40.8863 221.243L38.9593 222.701C39.0069 222.979 39.0258 223.274 39.0258 223.569ZM28.7745 223.569C28.7745 225.397 30.3122 226.893 32.1916 226.893C34.071 226.893 35.6087 225.397 35.6087 223.569C35.6087 221.741 34.071 220.245 32.1916 220.245C30.3122 220.245 28.7745 221.741 28.7745 223.569Z" fill="url(#paint9_linear_1013_98)"/>
<path fill-rule="evenodd" clip-rule="evenodd" d="M18.8504 272.16C20.7004 272.16 22.214 270.647 22.214 268.797C22.214 266.947 20.7004 265.433 18.8504 265.433C17.0004 265.433 15.4868 266.947 15.4868 268.797C15.4868 270.647 17.0004 272.16 18.8504 272.16ZM33.5751 273.871C33.3401 272.931 32.3805 272.369 31.4341 272.578C27.4521 273.458 23.0049 273.842 18.852 273.842C14.6992 273.842 10.2518 273.458 6.26977 272.578C5.32347 272.369 4.36386 272.931 4.12883 273.871C3.89946 274.789 4.44693 275.723 5.36907 275.933C7.58195 276.436 9.95482 276.809 12.2688 277.058C13.1374 277.151 13.8065 277.877 13.8065 278.751V297.387C13.8065 298.316 14.5595 299.069 15.4883 299.069C16.4172 299.069 17.1701 298.316 17.1701 297.387V290.66C17.1701 289.731 17.9231 288.978 18.852 288.978H21.5551L23.8974 285.11V278.751C23.8974 277.877 24.5666 277.151 25.4351 277.058C27.7491 276.809 30.122 276.436 32.3349 275.933C33.2571 275.723 33.8045 274.789 33.5751 273.871ZM37.0541 294.847C37.0901 294.584 37.1081 294.313 37.1081 294.024C37.1081 293.744 37.0901 293.463 37.045 293.2L38.8731 291.816C39.0353 291.694 39.0802 291.457 38.9811 291.282L37.2522 288.374C37.1441 288.181 36.919 288.12 36.7209 288.181L34.5687 289.022C34.1183 288.689 33.641 288.409 33.1097 288.199L32.7856 285.974C32.7496 285.764 32.5695 285.615 32.3534 285.615H28.8953C28.6791 285.615 28.5081 285.764 28.4721 285.974L28.1479 288.199C27.6166 288.409 27.1304 288.698 26.6891 289.022L24.5368 288.181C24.3387 288.111 24.1135 288.181 24.0055 288.374L22.2855 291.282C22.1774 291.466 22.2134 291.694 22.3935 291.816L24.2217 293.2C24.1766 293.463 24.1406 293.752 24.1406 294.024C24.1406 294.295 24.1586 294.584 24.2037 294.847L22.3755 296.231C22.2134 296.354 22.1685 296.59 22.2675 296.766L23.9965 299.674C24.1046 299.867 24.3296 299.928 24.5277 299.867L26.68 299.026C27.1304 299.358 27.6077 299.639 28.1389 299.849L28.463 302.074C28.5081 302.284 28.6791 302.433 28.8953 302.433H32.3534C32.5695 302.433 32.7496 302.284 32.7766 302.074L33.1008 299.849C33.6321 299.639 34.1183 299.358 34.5596 299.026L36.7118 299.867C36.91 299.936 37.1352 299.867 37.2431 299.674L38.9722 296.766C39.0802 296.573 39.0353 296.354 38.8641 296.231L37.0541 294.847ZM30.6243 297.177C28.8413 297.177 27.3825 295.758 27.3825 294.024C27.3825 292.29 28.8413 290.87 30.6243 290.87C32.4074 290.87 33.8662 292.29 33.8662 294.024C33.8662 295.758 32.4074 297.177 30.6243 297.177Z" fill="url(#paint10_linear_1013_98)"/>
<path d="M38.1424 344.528C37.881 343.525 36.8576 342.925 35.8437 343.143C31.328 344.111 26.2729 344.533 21.555 344.533C16.8371 344.533 11.782 344.111 7.26632 343.143C6.25242 342.925 5.22901 343.525 4.96768 344.528C4.70544 345.535 5.30994 346.567 6.32649 346.789C9.38572 347.458 12.7182 347.916 15.8675 348.173V369.937C15.8675 370.984 16.7163 371.833 17.7633 371.833C18.8104 371.833 19.6592 370.984 19.6592 369.937V362.809C19.6592 361.762 20.508 360.913 21.555 360.913C22.602 360.913 23.4508 361.762 23.4508 362.809V369.937C23.4508 370.984 24.2996 371.833 25.3467 371.833C26.3937 371.833 27.2425 370.984 27.2425 369.937V348.173C30.3918 347.916 33.7243 347.458 36.7836 346.789C37.8001 346.567 38.4046 345.535 38.1424 344.528ZM21.555 342.713C23.6404 342.713 25.3467 341.075 25.3467 339.073C25.3467 337.071 23.6404 335.433 21.555 335.433C19.4696 335.433 17.7633 337.071 17.7633 339.073C17.7633 341.075 19.4696 342.713 21.555 342.713Z" fill="url(#paint11_linear_1013_98)"/>
<path d="M6.55518 412.333H14.0552V404.833H6.55518V412.333ZM17.8052 434.833H25.3052V427.333H17.8052V434.833ZM6.55518 434.833H14.0552V427.333H6.55518V434.833ZM6.55518 423.583H14.0552V416.083H6.55518V423.583ZM17.8052 423.583H25.3052V416.083H17.8052V423.583ZM29.0552 404.833V412.333H36.5552V404.833H29.0552ZM17.8052 412.333H25.3052V404.833H17.8052V412.333ZM29.0552 423.583H36.5552V416.083H29.0552V423.583ZM29.0552 434.833H36.5552V427.333H29.0552V434.833Z" fill="url(#paint12_linear_1013_98)"/>
<path fill-rule="evenodd" clip-rule="evenodd" d="M2.30615 469.583C2.30615 468.617 3.08965 467.833 4.05615 467.833H35.5562C36.5227 467.833 37.3062 468.617 37.3062 469.583V480.958C37.3062 481.924 36.5227 482.708 35.5562 482.708C34.5897 482.708 33.8062 481.924 33.8062 480.958V473.083H5.80625V471.333L5.80615 492.333H18.0562C19.0227 492.333 19.8062 493.116 19.8062 494.083C19.8062 495.049 19.0227 495.833 18.0562 495.833H4.05615C3.08965 495.833 2.30615 495.049 2.30615 494.083V469.583ZM22.4313 479.58L23.2538 477.783L25.0563 476.975L23.2538 476.168L22.4313 474.371L21.6263 476.168L19.8063 476.975L21.6263 477.783L22.4313 479.58ZM27.6813 478.712C26.4125 478.712 25.7038 479.962 25.9925 480.891L22.8863 483.981C22.6238 483.903 22.2388 483.903 21.9763 483.981L19.745 481.768C20.0425 480.839 19.3338 479.58 18.0563 479.58C16.7875 479.58 16.07 480.83 16.3675 481.768L12.3775 485.718C11.4413 485.431 10.1813 486.134 10.1813 487.393C10.1813 488.348 10.9688 489.13 11.9313 489.13C13.2 489.13 13.9088 487.879 13.62 486.95L17.6013 482.992C17.8638 483.07 18.2488 483.07 18.5113 482.992L20.7425 485.205C20.445 486.134 21.1538 487.393 22.4313 487.393C23.7 487.393 24.4175 486.143 24.12 485.205L27.235 482.124C28.1713 482.41 29.4313 481.707 29.4313 480.448C29.4313 479.493 28.6438 478.712 27.6813 478.712ZM12.8063 479.58L12.3688 481.316L11.9313 479.58L10.1813 479.146L11.9313 478.712L12.3688 476.975L12.8063 478.712L14.5563 479.146L12.8063 479.58ZM38.801 494.084C38.801 494.385 38.7822 494.667 38.7448 494.941L40.6282 496.381C40.8062 496.509 40.8531 496.736 40.7406 496.937L38.9415 499.963C38.8291 500.164 38.5948 500.236 38.3887 500.164L36.1492 499.289C35.69 499.635 35.184 499.927 34.6312 500.145L34.2939 502.46C34.2657 502.679 34.0783 502.834 33.8534 502.834H30.2552C30.0304 502.834 29.8523 502.679 29.8055 502.46L29.4681 500.145C28.9153 499.927 28.4187 499.635 27.9502 499.289L25.7106 500.164C25.5045 500.227 25.2702 500.164 25.1578 499.963L23.3587 496.937C23.2556 496.755 23.3025 496.509 23.4711 496.381L25.3733 494.941C25.3265 494.667 25.3077 494.367 25.3077 494.084C25.3077 493.802 25.3452 493.501 25.3921 493.227L23.4899 491.787C23.3025 491.66 23.265 491.423 23.3774 491.231L25.1672 488.205C25.2796 488.005 25.5139 487.932 25.72 488.005L27.9595 488.88C28.4187 488.542 28.9247 488.242 29.4775 488.023L29.8148 485.708C29.8523 485.489 30.0304 485.334 30.2552 485.334H33.8534C34.0783 485.334 34.2657 485.489 34.3032 485.708L34.6406 488.023C35.1934 488.242 35.69 488.533 36.1585 488.88L38.3981 488.005C38.6042 487.941 38.8385 488.005 38.9509 488.205L40.75 491.231C40.8531 491.414 40.8062 491.66 40.6376 491.787L38.7354 493.227C38.7822 493.501 38.801 493.792 38.801 494.084ZM28.681 494.084C28.681 495.889 30.199 497.365 32.0543 497.365C33.9097 497.365 35.4277 495.889 35.4277 494.084C35.4277 492.279 33.9097 490.803 32.0543 490.803C30.199 490.803 28.681 492.279 28.681 494.084Z" fill="url(#paint13_linear_1013_98)"/>
<path d="M21.0512 535.834H7.87061C6.21376 535.834 4.87061 537.177 4.87061 538.834V564.22C4.87061 565.877 6.21376 567.22 7.87061 567.22H21.0512C22.7081 567.22 24.0512 565.877 24.0512 564.22V538.834C24.0512 537.177 22.7081 535.834 21.0512 535.834Z" fill="url(#paint14_linear_1013_98)"/>
<path d="M20.3043 539.151H8.62427V561.612H20.3043V539.151Z" fill="white"/>
<path d="M30.0993 542.809H16.2638C14.7878 542.809 13.5913 544.006 13.5913 545.482V568.036C13.5913 569.511 14.7878 570.708 16.2638 570.708H30.0993C31.5753 570.708 32.7718 569.511 32.7718 568.036V545.482C32.7718 544.006 31.5753 542.809 30.0993 542.809Z" fill="white"/>
<path d="M29.8867 542.744H16.5698C14.9129 542.744 13.5698 544.087 13.5698 545.744V567.596C13.5698 569.253 14.9129 570.596 16.5698 570.596H29.8867C31.5436 570.596 32.8868 569.253 32.8868 567.596V545.744C32.8868 544.087 31.5436 542.744 29.8867 542.744Z" fill="url(#paint15_linear_1013_98)"/>
<path d="M29.2889 547.686H17.1597V565.206H29.2889V547.686Z" fill="white"/>
<path d="M38.0412 561.544L38.035 561.533L38.0286 561.522L36.3086 558.502C35.8743 557.714 34.9977 557.522 34.3383 557.735L34.2949 557.749L34.2526 557.766L32.723 558.39C32.5629 558.287 32.3978 558.188 32.227 558.096L31.994 556.427L31.992 556.413L31.9896 556.398C31.8603 555.61 31.1883 555.002 30.3548 555.002H26.904C26.0395 555.002 25.4022 555.642 25.2781 556.398L25.2758 556.413L25.2737 556.427L25.0406 558.097C24.8698 558.19 24.705 558.288 24.5461 558.39L23.0151 557.766L22.9961 557.758L22.9769 557.751C22.2427 557.48 21.3719 557.752 20.9584 558.503L19.2468 561.524L19.2451 561.527C18.8815 562.173 18.9475 563.109 19.6769 563.652L20.9502 564.659C20.9434 564.765 20.9395 564.873 20.9395 564.981C20.9395 565.082 20.9415 565.186 20.9458 565.293L19.6419 566.324C19.6418 566.324 19.642 566.324 19.6419 566.324C18.9903 566.839 18.8516 567.743 19.2176 568.418L19.2238 568.43L19.2302 568.441L20.9502 571.461C21.3844 572.249 22.261 572.441 22.9205 572.228L22.9639 572.214L23.0061 572.197L24.5357 571.573C24.6958 571.676 24.861 571.774 25.0318 571.867L25.2648 573.536L25.2701 573.574L25.2779 573.612C25.4234 574.321 26.0336 574.961 26.904 574.961H30.3548C31.1755 574.961 31.8773 574.359 31.9859 573.529L32.2178 571.868C32.3889 571.776 32.5552 571.678 32.7165 571.574L34.2437 572.197L34.2626 572.205L34.2818 572.212C35.0156 572.483 35.8857 572.211 36.2995 571.461L38.0196 568.441L38.0271 568.428L38.0342 568.415C38.3979 567.738 38.2819 566.843 37.6023 566.319L36.3136 565.291C36.3173 565.189 36.3192 565.086 36.3192 564.981C36.3192 564.879 36.3173 564.775 36.3131 564.669L37.6168 563.639C38.2687 563.124 38.4072 562.22 38.0412 561.544ZM28.6294 567.047C27.5411 567.047 26.6138 566.132 26.6138 564.981C26.6138 563.831 27.5411 562.916 28.6294 562.916C29.7176 562.916 30.6449 563.831 30.6449 564.981C30.6449 566.132 29.7176 567.047 28.6294 567.047Z" fill="white"/>
<path d="M19.6419 566.324L20.9458 565.293C20.9415 565.186 20.9395 565.082 20.9395 564.981C20.9395 564.873 20.9434 564.765 20.9502 564.659L19.6769 563.652C18.9475 563.109 18.8815 562.173 19.2451 561.527L19.2468 561.524L20.9584 558.503C21.3719 557.752 22.2427 557.48 22.9769 557.751L22.9961 557.758L23.0151 557.766L24.5461 558.39C24.705 558.288 24.8698 558.19 25.0406 558.097L25.2737 556.427L25.2758 556.413L25.2781 556.398C25.4022 555.642 26.0395 555.002 26.904 555.002H30.3548C31.1883 555.002 31.8603 555.61 31.9896 556.398L31.992 556.413L31.994 556.427L32.227 558.096C32.3978 558.188 32.5629 558.287 32.723 558.39L34.2526 557.766L34.2949 557.749L34.3383 557.735C34.9977 557.522 35.8743 557.714 36.3086 558.502L38.0286 561.522L38.035 561.533L38.0412 561.544C38.4072 562.22 38.2687 563.124 37.6168 563.639L36.3131 564.669C36.3173 564.775 36.3192 564.879 36.3192 564.981C36.3192 565.086 36.3173 565.189 36.3136 565.291L37.6023 566.319C38.2819 566.843 38.3979 567.738 38.0342 568.415L38.0271 568.428L38.0196 568.441L36.2995 571.461C35.8857 572.211 35.0156 572.483 34.2818 572.212L34.2626 572.205L34.2437 572.197L32.7165 571.574C32.5552 571.678 32.3889 571.776 32.2178 571.868L31.9859 573.529C31.8773 574.359 31.1755 574.961 30.3548 574.961H26.904C26.0336 574.961 25.4234 574.321 25.2779 573.612L25.2701 573.574L25.2648 573.536L25.0318 571.867C24.861 571.774 24.6958 571.676 24.5357 571.573L23.0061 572.197L22.9639 572.214L22.9205 572.228C22.261 572.441 21.3844 572.249 20.9502 571.461L19.2302 568.441L19.2238 568.43L19.2176 568.418C18.8516 567.743 18.9903 566.839 19.6419 566.324ZM19.6419 566.324C19.6418 566.324 19.642 566.324 19.6419 566.324ZM28.6294 567.047C27.5411 567.047 26.6138 566.132 26.6138 564.981C26.6138 563.831 27.5411 562.916 28.6294 562.916C29.7176 562.916 30.6449 563.831 30.6449 564.981C30.6449 566.132 29.7176 567.047 28.6294 567.047Z" stroke="white" stroke-width="2.43912"/>
<path d="M35.718 566.376C35.3008 566.043 35.0997 565.515 35.0997 564.981C35.0997 564.45 35.2955 563.919 35.7123 563.59L36.8611 562.682C37.0228 562.554 37.0678 562.308 36.9689 562.125L35.2435 559.096C35.1357 558.895 34.911 558.831 34.7133 558.895L33.352 559.45C32.8652 559.649 32.3182 559.562 31.8663 559.293C31.4162 559.026 31.0653 558.595 30.9929 558.076L30.7862 556.596C30.7503 556.377 30.5705 556.221 30.3549 556.221H26.9041C26.6884 556.221 26.5176 556.377 26.4817 556.596L26.2753 558.075C26.2027 558.594 25.8474 559.029 25.397 559.297C24.9461 559.567 24.4036 559.649 23.9174 559.451L22.5546 558.895C22.3569 558.822 22.1322 558.895 22.0244 559.096L20.308 562.125C20.2002 562.317 20.2361 562.554 20.4158 562.682L21.5634 563.589C21.981 563.919 22.1592 564.449 22.1592 564.981C22.1592 565.513 21.9635 566.044 21.5466 566.373L20.3979 567.281C20.2361 567.409 20.1912 567.655 20.29 567.837L22.0154 570.867C22.1233 571.068 22.3479 571.132 22.5456 571.068L23.9069 570.512C24.3938 570.314 24.9407 570.401 25.3927 570.669C25.8428 570.937 26.1937 571.368 26.2661 571.887L26.4727 573.367C26.5176 573.586 26.6884 573.741 26.9041 573.741H30.3549C30.5705 573.741 30.7503 573.586 30.7772 573.367L30.9845 571.882C31.0565 571.366 31.4081 570.937 31.8565 570.672C32.3112 570.403 32.8587 570.315 33.3476 570.514L34.7043 571.068C34.902 571.141 35.1268 571.068 35.2345 570.867L36.9599 567.837C37.0678 567.637 37.0228 567.409 36.8521 567.281L35.718 566.376ZM28.6295 568.266C26.8501 568.266 25.3943 566.788 25.3943 564.981C25.3943 563.175 26.8501 561.696 28.6295 561.696C30.4088 561.696 31.8646 563.175 31.8646 564.981C31.8646 566.788 30.4088 568.266 28.6295 568.266Z" fill="url(#paint16_linear_1013_98)"/>
<path d="M28.9546 566.554C29.947 566.554 30.7515 565.749 30.7515 564.757C30.7515 563.765 29.947 562.96 28.9546 562.96C27.9622 562.96 27.1577 563.765 27.1577 564.757C27.1577 565.749 27.9622 566.554 28.9546 566.554Z" fill="white"/>
<path d="M24.1477 607.965L9.95352 607.961C8.46333 607.96 7.25493 609.168 7.2545 610.658L7.24683 637.319C7.2464 638.81 8.45411 640.018 9.94432 640.018L24.1385 640.022C25.6287 640.023 26.8371 638.815 26.8375 637.325L26.8452 610.664C26.8456 609.174 25.6379 607.965 24.1477 607.965Z" fill="url(#paint17_linear_1013_98)"/>
<path d="M23.0191 611.352L11.0894 611.349L11.0828 634.291L23.0125 634.294L23.0191 611.352Z" fill="white"/>
<path d="M33.8096 615.092L18.1007 615.088C17.0288 615.087 16.1596 615.956 16.1592 617.028L16.1522 641.642C16.1519 642.714 17.0206 643.583 18.0925 643.583L33.8014 643.588C34.8733 643.588 35.7426 642.719 35.7429 641.647L35.7499 617.034C35.7503 615.962 34.8815 615.092 33.8096 615.092Z" fill="white"/>
<path d="M33.1661 615.026L18.8327 615.022C17.3425 615.021 16.1341 616.229 16.1336 617.719L16.127 640.771C16.1266 642.261 17.3343 643.469 18.8245 643.47L33.158 643.474C34.6482 643.474 35.8566 642.266 35.857 640.776L35.8636 617.725C35.8641 616.235 34.6563 615.026 33.1661 615.026Z" fill="url(#paint18_linear_1013_98)"/>
<path d="M32.1929 620.074L19.8043 620.07L19.7992 637.965L32.1878 637.968L32.1929 620.074Z" fill="white"/>
<path fill-rule="evenodd" clip-rule="evenodd" d="M8.82112 705.499V680.031H34.2893V705.499H8.82112ZM5.37891 678.31C5.37891 677.359 6.14947 676.588 7.1 676.588H36.0104C36.9609 676.588 37.7315 677.359 37.7315 678.31V707.22C37.7315 708.17 36.9609 708.941 36.0104 708.941H7.1C6.14947 708.941 5.37891 708.17 5.37891 707.22V678.31ZM30.8098 683.095C31.4658 683.722 31.4941 684.76 30.8732 685.422L24.8264 691.866L20.9663 687.978C20.2982 687.305 20.3001 686.219 20.9705 685.548L21.0708 685.448C21.7446 684.774 22.8377 684.776 23.5091 685.452L24.8264 686.779L28.5004 683.119C29.1361 682.485 30.161 682.475 30.8098 683.095ZM31.0953 694.216C31.7779 694.899 31.7657 696.009 31.0682 696.677L24.8264 702.65L20.9663 698.762C20.2982 698.089 20.3001 697.003 20.9705 696.333L21.0708 696.232C21.7446 695.558 22.8377 695.56 23.5091 696.237L24.8264 697.563L28.4264 693.977C29.0988 693.307 30.1868 693.308 30.8581 693.979L31.0953 694.216ZM12.5686 685.575H17.9607V689.17H12.5686V685.575ZM17.9607 696.358H12.5686V699.953H17.9607V696.358Z" fill="url(#paint19_linear_1013_98)"/>
<path fill-rule="evenodd" clip-rule="evenodd" d="M21.9336 743.662C21.9336 742.712 21.1629 741.941 20.2122 741.941C19.2615 741.941 18.4909 742.712 18.4909 743.662V745.434C16.5809 745.576 14.7537 746.016 13.0562 746.691L12.3831 745.094C12.0141 744.218 11.0046 743.807 10.1285 744.176C9.25231 744.545 8.84131 745.554 9.21041 746.43L9.97811 748.252C8.77581 749.006 7.67413 749.881 6.6966 750.847L5.55889 749.709C4.88666 749.037 3.79677 749.037 3.12453 749.709C2.4523 750.381 2.4523 751.471 3.12453 752.143L4.47827 753.497C3.75368 754.558 3.16417 755.677 2.73104 756.826C2.58347 757.217 2.58347 757.649 2.73102 758.04C5.04653 764.182 11.8309 769.483 19.8341 769.483C20.7848 769.483 21.5554 768.712 21.5554 767.761C21.5554 766.811 20.7848 766.04 19.8341 766.04C13.5727 766.04 8.24104 762.02 6.20182 757.433C8.24106 752.847 13.5728 748.826 19.8341 748.826C26.3702 748.826 31.8934 753.208 33.7156 758.04C34.0509 758.93 35.044 759.379 35.9336 759.044C36.823 758.708 37.2723 757.715 36.937 756.826C36.5039 755.677 35.9143 754.558 35.1898 753.497L36.5435 752.143C37.2156 751.471 37.2156 750.381 36.5435 749.709C35.8713 749.037 34.7813 749.037 34.1091 749.709L32.9713 750.847C31.9147 749.803 30.713 748.865 29.396 748.072L30.1596 746.453C30.565 745.593 30.1968 744.567 29.337 744.162C28.477 743.756 27.4512 744.125 27.0457 744.984L26.2981 746.57C24.9174 746.049 23.4544 745.683 21.9336 745.506V743.662ZM19.834 764.267C23.6366 764.267 26.7194 761.184 26.7194 757.381C26.7194 753.579 23.6366 750.496 19.834 750.496C16.0313 750.496 12.9486 753.579 12.9486 757.381C12.9486 761.184 16.0313 764.267 19.834 764.267ZM22.2788 758.05C23.7504 758.05 24.9432 756.857 24.9432 755.386C24.9432 753.914 23.7504 752.722 22.2788 752.722C20.8074 752.722 19.6147 753.914 19.6147 755.386C19.6147 756.857 20.8074 758.05 22.2788 758.05ZM38.4644 770.272C38.5012 770.003 38.5196 769.726 38.5196 769.43C38.5196 769.143 38.5012 768.856 38.4551 768.587L40.3262 767.17C40.4921 767.045 40.5381 766.803 40.4367 766.624L38.6671 763.647C38.5565 763.45 38.3261 763.387 38.1234 763.45L35.9205 764.31C35.4596 763.97 34.971 763.683 34.4273 763.468L34.0956 761.19C34.0587 760.975 33.8744 760.823 33.6532 760.823H30.1137C29.8925 760.823 29.7174 760.975 29.6806 761.19L29.3487 763.468C28.805 763.683 28.3073 763.979 27.8556 764.31L25.6528 763.45C25.45 763.378 25.2195 763.45 25.109 763.647L23.3486 766.624C23.2379 766.812 23.2747 767.045 23.4591 767.17L25.3302 768.587C25.2841 768.856 25.2472 769.152 25.2472 769.43C25.2472 769.708 25.2657 770.003 25.3118 770.272L23.4407 771.689C23.2747 771.814 23.2288 772.056 23.3302 772.236L25.0997 775.212C25.2104 775.41 25.4407 775.472 25.6435 775.41L27.8463 774.549C28.3073 774.89 28.7958 775.176 29.3396 775.392L29.6713 777.669C29.7174 777.884 29.8925 778.036 30.1137 778.036H33.6532C33.8744 778.036 34.0587 777.884 34.0863 777.669L34.4181 775.392C34.9619 775.176 35.4596 774.89 35.9112 774.549L38.1141 775.41C38.3168 775.481 38.5473 775.41 38.6578 775.212L40.4276 772.236C40.5381 772.039 40.4921 771.814 40.3169 771.689L38.4644 770.272ZM31.8834 772.657C30.0584 772.657 28.5653 771.205 28.5653 769.43C28.5653 767.655 30.0584 766.202 31.8834 766.202C33.7084 766.202 35.2015 767.655 35.2015 769.43C35.2015 771.205 33.7084 772.657 31.8834 772.657Z" fill="url(#paint20_linear_1013_98)"/>
<path fill-rule="evenodd" clip-rule="evenodd" d="M34.8858 814.358H4.88672V811.036H36.2191C37.3235 811.036 38.219 811.928 38.219 813.029V825.153H34.8858V814.358ZM18.2227 832.625H23.2228V837.608H18.2227V832.625ZM3.22138 817.679H13.2216C14.1383 817.679 14.8883 818.426 14.8883 819.34V835.949C14.8883 836.863 14.1383 837.61 13.2216 837.61H3.22138C2.3047 837.61 1.55469 836.863 1.55469 835.949V819.34C1.55469 818.426 2.3047 817.679 3.22138 817.679ZM4.88808 832.628H11.5549V821.001H4.88808V832.628ZM39.5941 836.762C39.6297 836.502 39.6476 836.234 39.6476 835.949C39.6476 835.672 39.6297 835.395 39.5851 835.135L41.3968 833.769C41.5574 833.647 41.6019 833.414 41.5038 833.241L39.7904 830.369C39.6832 830.178 39.4602 830.118 39.2639 830.178L37.131 831.009C36.6847 830.68 36.2117 830.403 35.6852 830.196L35.364 827.998C35.3283 827.791 35.1498 827.644 34.9357 827.644H31.5086C31.2944 827.644 31.1249 827.791 31.0893 827.998L30.7679 830.196C30.2414 830.403 29.7596 830.689 29.3222 831.009L27.1894 830.178C26.993 830.109 26.7698 830.178 26.6628 830.369L24.9583 833.241C24.8511 833.423 24.8868 833.647 25.0653 833.769L26.877 835.135C26.8323 835.395 26.7967 835.68 26.7967 835.949C26.7967 836.217 26.8145 836.502 26.8592 836.762L25.0475 838.129C24.8868 838.25 24.8423 838.483 24.9405 838.656L26.6538 841.528C26.761 841.719 26.984 841.779 27.1804 841.719L29.3132 840.888C29.7596 841.217 30.2326 841.494 30.7591 841.701L31.0803 843.899C31.1249 844.106 31.2944 844.253 31.5086 844.253H34.9357C35.1498 844.253 35.3283 844.106 35.355 843.899L35.6763 841.701C36.2028 841.494 36.6847 841.217 37.122 840.888L39.2549 841.719C39.4512 841.788 39.6744 841.719 39.7814 841.528L41.4949 838.656C41.6019 838.466 41.5574 838.25 41.3878 838.129L39.5941 836.762ZM33.2221 839.063C31.4551 839.063 30.0094 837.661 30.0094 835.949C30.0094 834.236 31.4551 832.834 33.2221 832.834C34.9892 832.834 36.4348 834.236 36.4348 835.949C36.4348 837.661 34.9892 839.063 33.2221 839.063Z" fill="url(#paint21_linear_1013_98)"/>
<path d="M34.8885 880.587H4.88851V877.253H34.8885C36.7219 877.253 38.2219 878.753 38.2219 880.587V898.92H41.5552V903.92H18.2219V898.92H34.8885V880.587ZM3.22185 883.92H13.2219C14.1385 883.92 14.8885 884.67 14.8885 885.587V902.253C14.8885 903.17 14.1385 903.92 13.2219 903.92H3.22185C2.30518 903.92 1.55518 903.17 1.55518 902.253V885.587C1.55518 884.67 2.30518 883.92 3.22185 883.92ZM4.88851 898.92H11.5552V887.253H4.88851V898.92Z" fill="url(#paint22_linear_1013_98)"/>
<mask id="mask0_1013_98" style="mask-type:luminance" maskUnits="userSpaceOnUse" x="1" y="936" width="41" height="38">
<path d="M41.1611 936.92H1.94946V973.331H41.1611V936.92Z" fill="white"/>
</mask>
<g mask="url(#mask0_1013_98)">
<path fill-rule="evenodd" clip-rule="evenodd" d="M3.0979 940.935C3.0979 939.248 4.57977 937.88 6.40776 937.88H36.1966C38.0246 937.88 39.5064 939.248 39.5064 940.935V951.629H36.1966V940.935H6.40776V961.304H21.3022V964.359H6.40776C4.57977 964.359 3.0979 962.991 3.0979 961.304V940.935ZM13.8862 953.52L14.5416 955.829H16.9247L14.1096 946.233H10.952L8.13697 955.829H10.4009L11.0414 953.52H13.8862ZM12.4117 948.226H12.5308L13.5437 951.856H11.3989L12.4117 948.226ZM18.1253 946.233V955.829H20.3743V952.337H22.1468C22.6532 952.337 23.105 952.269 23.5022 952.131C23.8993 951.984 24.232 951.778 24.5001 951.512C24.7781 951.247 24.9866 950.926 25.1256 950.55C25.2647 950.174 25.3342 949.753 25.3342 949.285C25.3342 948.818 25.2647 948.396 25.1256 948.02C24.9866 947.644 24.7781 947.324 24.5001 947.058C24.232 946.792 23.8993 946.59 23.5022 946.453C23.105 946.306 22.6532 946.233 22.1468 946.233H18.1253ZM21.5808 950.674H20.3743V947.896H21.5808C22.107 947.896 22.4695 947.988 22.6681 948.171C22.8766 948.355 22.9808 948.657 22.9808 949.079V949.491C22.9808 949.913 22.8766 950.215 22.6681 950.399C22.4695 950.582 22.107 950.674 21.5808 950.674ZM27.0415 955.829V954.303H29.2757V947.759H27.0415V946.233H33.744V947.759H31.5098V954.303H33.744V955.829H27.0415ZM39.183 966.172C39.2189 965.924 39.2369 965.668 39.2369 965.395C39.2369 965.131 39.2189 964.866 39.1739 964.618L41.0006 963.312C41.1626 963.197 41.2075 962.973 41.1085 962.808L39.3809 960.064C39.2729 959.882 39.048 959.824 38.8501 959.882L36.6995 960.675C36.2495 960.361 35.7726 960.097 35.2417 959.898L34.9179 957.799C34.8819 957.6 34.7019 957.46 34.486 957.46H31.0305C30.8146 957.46 30.6437 957.6 30.6077 957.799L30.2837 959.898C29.7528 960.097 29.267 960.369 28.826 960.675L26.6755 959.882C26.4775 959.816 26.2525 959.882 26.1446 960.064L24.426 962.808C24.3179 962.982 24.3539 963.197 24.5338 963.312L26.3606 964.618C26.3155 964.866 26.2796 965.139 26.2796 965.395C26.2796 965.652 26.2975 965.924 26.3426 966.172L24.5159 967.478C24.3539 967.594 24.309 967.817 24.408 967.983L26.1355 970.727C26.2436 970.909 26.4684 970.967 26.6664 970.909L28.8169 970.115C29.267 970.43 29.7439 970.694 30.2748 970.892L30.5986 972.992C30.6437 973.191 30.8146 973.331 31.0305 973.331H34.486C34.7019 973.331 34.8819 973.191 34.9088 972.992L35.2328 970.892C35.7637 970.694 36.2495 970.43 36.6904 970.115L38.841 970.909C39.039 970.975 39.264 970.909 39.3719 970.727L41.0996 967.983C41.2075 967.801 41.1626 967.594 40.9915 967.478L39.183 966.172ZM32.7582 968.371C30.9766 968.371 29.5189 967.032 29.5189 965.395C29.5189 963.759 30.9766 962.419 32.7582 962.419C34.5399 962.419 35.9976 963.759 35.9976 965.395C35.9976 967.032 34.5399 968.371 32.7582 968.371Z" fill="url(#paint23_linear_1013_98)"/>
</g>
<path fill-rule="evenodd" clip-rule="evenodd" d="M23.8146 1008.83H20.8626V1006.33H28.7792V1014.25H26.2792V1011.09L13.3856 1023.18L3.91431 1014.65L6.14419 1012.18L13.3396 1018.65L23.8146 1008.83Z" fill="url(#paint24_linear_1013_98)"/>
<path fill-rule="evenodd" clip-rule="evenodd" d="M29.1961 1015.91H34.1961V1022.62C33.9218 1022.59 33.6438 1022.58 33.3628 1022.58C31.859 1022.58 30.4438 1022.94 29.1961 1023.57V1015.91ZM34.1961 1025.97V1027.58H29.2589C30.3085 1026.55 31.7539 1025.91 33.3628 1025.91C33.646 1025.91 33.9242 1025.93 34.1961 1025.97ZM25.8628 1026.45V1020.91H20.8628V1035.91H25.196C24.5558 1034.66 24.1961 1033.25 24.1961 1031.75C24.1961 1029.77 24.8115 1027.94 25.8628 1026.45ZM4.19604 1024.25H9.19602V1035.91H4.19604V1024.25ZM17.5294 1027.58H12.5294V1035.91H17.5294V1027.58Z" fill="url(#paint25_linear_1013_98)"/>
<path fill-rule="evenodd" clip-rule="evenodd" d="M31.696 1042.58C31.196 1042.58 30.8627 1042.16 30.8627 1041.75V1040.91H35.8627V1041.75C35.8627 1042.16 35.5294 1042.58 35.0294 1042.58H31.696ZM27.5294 1031.75C27.5294 1028.5 30.1127 1025.91 33.3627 1025.91C36.6127 1025.91 39.196 1028.5 39.196 1031.75C39.196 1033.66 38.196 1035.41 36.696 1036.5V1038.41C36.696 1038.83 36.3627 1039.25 35.8627 1039.25H30.8627C30.3627 1039.25 30.0294 1038.83 30.0294 1038.41V1036.5C28.5294 1035.5 27.5294 1033.75 27.5294 1031.75ZM33.3627 1035.08C35.2036 1035.08 36.696 1033.59 36.696 1031.75C36.696 1029.91 35.2036 1028.41 33.3627 1028.41C31.5217 1028.41 30.0293 1029.91 30.0293 1031.75C30.0293 1033.59 31.5217 1035.08 33.3627 1035.08Z" fill="url(#paint26_linear_1013_98)"/>
<path d="M19.4441 1111.65V1104.37C16.9337 1104.41 14.1903 1104.21 11.3405 1103.63L11.3271 1103.61V1107.95C11.3271 1108.82 11.4204 1109.52 11.607 1110.05C11.7936 1110.58 12.0579 1111 12.4 1111.3C12.7732 1111.6 13.2241 1111.8 13.7528 1111.9C14.3126 1112.03 14.9502 1112.1 15.6655 1112.1C16.3808 1112.1 17.0961 1112.05 17.8114 1111.95C18.5578 1111.85 19.102 1111.75 19.4441 1111.65Z" fill="url(#paint27_linear_1013_98)"/>
<path d="M19.444 1102.05H19.7896C22.9813 1101.99 26.4623 1101.51 29.4291 1100.16L29.427 1100.15C30.7954 1099.35 31.9772 1098.22 32.9724 1096.76C33.9676 1095.29 34.4652 1093.52 34.4652 1091.46C34.4652 1088.16 33.3767 1085.55 31.1997 1083.61C29.0228 1081.68 25.7884 1080.71 21.4966 1080.71C19.9105 1080.71 18.4177 1080.81 17.0182 1081.01C15.6187 1081.18 14.3903 1081.46 13.3329 1081.86C12.7109 1082.1 12.2133 1082.41 11.8401 1082.81C11.498 1083.18 11.3269 1083.71 11.3269 1084.41V1092.79C12.7556 1093.01 18.1794 1093.48 19.3973 1093.43V1087.91C19.7394 1087.84 20.0504 1087.79 20.3303 1087.76C20.6102 1087.73 20.9834 1087.71 21.4499 1087.71C23.0982 1087.71 24.2956 1088.04 25.042 1088.71C25.8195 1089.34 26.2082 1090.29 26.2082 1091.56C26.2082 1092.82 25.8661 1093.79 25.1819 1094.46C24.4977 1095.09 23.5647 1095.41 22.3829 1095.41H19.3973V1095.38C19.3893 1095.39 19.3818 1095.41 19.375 1095.42C14.8492 1095.2 12.1011 1095.01 11.3251 1094.9L9.17502 1094.68C8.97872 1094.67 8.83522 1094.49 8.85452 1094.29L8.97092 1093.11C9.00462 1092.77 8.58222 1092.58 8.351 1092.83L3.86387 1097.78C3.74109 1097.91 3.74028 1098.12 3.86199 1098.25L7.46652 1102.3C7.67371 1102.53 8.05789 1102.4 8.08831 1102.09L8.17191 1101.24C8.19218 1101.04 8.38324 1100.89 8.58752 1100.93L11.3269 1101.4V1101.41L11.3403 1101.4C13.0164 1101.68 16.0473 1102.1 19.444 1102.06V1102.05Z" fill="url(#paint28_linear_1013_98)"/>
<path d="M25.8355 1108.8L23.1322 1104.15C26.6439 1103.76 29.4199 1102.98 30.97 1102.35C31.5644 1103.18 32.1542 1103.98 32.7396 1104.75C33.8281 1106.18 34.6834 1107.48 35.3054 1108.65C34.9944 1109.82 34.419 1110.72 33.5793 1111.35C32.7708 1111.95 31.8533 1112.25 30.827 1112.25C30.1428 1112.25 29.5519 1112.16 29.0543 1112C28.5567 1111.83 28.1213 1111.6 27.7481 1111.3C27.3749 1111 27.0328 1110.63 26.7218 1110.2C26.4108 1109.77 26.1154 1109.3 25.8355 1108.8Z" fill="url(#paint29_linear_1013_98)"/>
<path d="M3.13477 1158.94C3.13477 1157.42 4.36599 1156.19 5.88477 1156.19H10.4682C11.4807 1156.19 12.3015 1157.01 12.3015 1158.02C12.3015 1159.03 11.4807 1159.86 10.4682 1159.86H6.80144V1163.52C6.80144 1164.53 5.98062 1165.36 4.9681 1165.36C3.95558 1165.36 3.13477 1164.53 3.13477 1163.52V1158.94Z" fill="url(#paint30_linear_1013_98)"/>
<path d="M3.13477 1190.05C3.13477 1191.57 4.36599 1192.8 5.88477 1192.8H10.4682C11.4807 1192.8 12.3015 1191.98 12.3015 1190.97C12.3015 1189.95 11.4807 1189.13 10.4682 1189.13H6.80144V1185.47C6.80144 1184.45 5.98062 1183.63 4.9681 1183.63C3.95558 1183.63 3.13477 1184.45 3.13477 1185.47V1190.05Z" fill="url(#paint31_linear_1013_98)"/>
<path d="M37.0515 1156.19C38.5703 1156.19 39.8015 1157.42 39.8015 1158.94V1163.52C39.8015 1164.53 38.9807 1165.36 37.9682 1165.36C36.9556 1165.36 36.1348 1164.53 36.1348 1163.52V1159.86H32.4682C31.4556 1159.86 30.6348 1159.03 30.6348 1158.02C30.6348 1157.01 31.4556 1156.19 32.4682 1156.19H37.0515Z" fill="url(#paint32_linear_1013_98)"/>
<path d="M37.0515 1192.8C38.5703 1192.8 39.8015 1191.57 39.8015 1190.05V1185.47C39.8015 1184.45 38.9807 1183.63 37.9682 1183.63C36.9556 1183.63 36.1348 1184.45 36.1348 1185.47V1189.13H32.4682C31.4556 1189.13 30.6348 1189.95 30.6348 1190.97C30.6348 1191.98 31.4556 1192.8 32.4682 1192.8H37.0515Z" fill="url(#paint33_linear_1013_98)"/>
<path fill-rule="evenodd" clip-rule="evenodd" d="M17.6489 1160.78C17.112 1160.24 16.2414 1160.24 15.7044 1160.78C15.1674 1161.31 15.1674 1162.18 15.7044 1162.72C15.9804 1163 16.4562 1163.53 16.9199 1164.17C17.3916 1164.83 17.7926 1165.52 17.9913 1166.11C17.638 1166.59 17.3813 1167.15 17.2481 1167.76C13.348 1169.43 10.616 1173.31 10.616 1177.82C10.616 1181.96 12.9167 1185.56 16.3007 1187.41L17.4909 1188.07L18.4626 1187.12C19.1178 1186.48 19.7275 1185.8 20.2881 1185.08C20.6894 1185.2 21.1148 1185.26 21.5552 1185.26C21.9957 1185.26 22.4211 1185.2 22.8224 1185.08C23.383 1185.8 23.9927 1186.48 24.6479 1187.12L25.6196 1188.07L26.8099 1187.41C30.1938 1185.56 32.4946 1181.96 32.4946 1177.82C32.4946 1173.31 29.7625 1169.43 25.8623 1167.76C25.7147 1167.09 25.4144 1166.48 24.9998 1165.96C25.2122 1165.4 25.5846 1164.77 26.0162 1164.17C26.4799 1163.53 26.9558 1163 27.2317 1162.72C27.7687 1162.18 27.7687 1161.31 27.2317 1160.78C26.6948 1160.24 25.8242 1160.24 25.2872 1160.78C24.9084 1161.15 24.3367 1161.8 23.7856 1162.56C23.3929 1163.11 22.9802 1163.76 22.6589 1164.44C22.3062 1164.35 21.9364 1164.3 21.5552 1164.3C21.1181 1164.3 20.6958 1164.37 20.2971 1164.48C19.9731 1163.78 19.5516 1163.12 19.1508 1162.56C18.5996 1161.8 18.0277 1161.15 17.6489 1160.78ZM14.2827 1177.82C14.2827 1174.11 17.0548 1171.05 20.6386 1170.6V1176.51L19.6564 1178.92C18.9866 1180.56 18.0588 1182.08 16.9127 1183.42C15.3038 1182.08 14.2827 1180.07 14.2827 1177.82ZM23.4541 1178.92L22.4719 1176.51V1170.6C26.0557 1171.05 28.8278 1174.11 28.8278 1177.82C28.8278 1180.07 27.8067 1182.08 26.1978 1183.42C25.0517 1182.08 24.1239 1180.56 23.4541 1178.92Z" fill="url(#paint34_linear_1013_98)"/>
<path d="M5.97185 1265.32C4.96351 1265.32 4.10032 1264.96 3.38226 1264.25C2.66421 1263.53 2.30518 1262.67 2.30518 1261.66V1235.99C2.30518 1234.98 2.66421 1234.12 3.38226 1233.4C4.10032 1232.68 4.96351 1232.32 5.97185 1232.32H31.6385C32.6469 1232.32 33.5101 1232.68 34.2281 1233.4C34.9462 1234.12 35.3052 1234.98 35.3052 1235.99V1249.01C34.9996 1248.95 34.7017 1248.9 34.4115 1248.87C34.1212 1248.84 33.808 1248.82 33.4719 1248.82H31.6385V1235.99H5.97185V1261.66H16.9719C17.0941 1262.33 17.2545 1262.97 17.4531 1263.58C17.6517 1264.19 17.9191 1264.77 18.2552 1265.32H5.97185ZM5.97185 1259.82V1261.66V1235.99V1259.82ZM9.63852 1257.99H11.6552C11.8996 1256.49 12.4344 1255.11 13.2594 1253.84C14.0844 1252.57 15.1385 1251.51 16.4219 1250.66H9.63852V1257.99ZM9.63852 1246.99H16.9719V1239.66H9.63852V1246.99ZM20.6385 1246.99H27.9719V1239.66H20.6385V1246.99Z" fill="url(#paint35_linear_1013_98)"/>
<path d="M16.9718 1257.99H9.63843V1250.66H16.9718V1257.99Z" fill="url(#paint36_linear_1013_98)"/>
<path d="M30.7218 1250.66C33.5115 1250.66 35.8903 1251.64 37.8565 1253.61C39.8226 1255.57 40.8057 1257.95 40.8057 1260.74C40.8057 1263.53 39.8228 1265.91 37.8565 1267.87C35.8903 1269.84 33.5115 1270.82 30.7218 1270.82C27.9323 1270.82 25.5541 1269.84 23.588 1267.87C21.6217 1265.91 20.6388 1263.53 20.6388 1260.74C20.6388 1257.95 21.6218 1255.57 23.588 1253.61C25.5541 1251.64 27.9322 1250.66 30.7218 1250.66ZM28.6661 1254.32C28.3131 1254.32 27.9596 1254.37 27.6065 1254.46C27.2536 1254.56 26.9113 1254.69 26.5792 1254.85L29.5069 1257.78L27.7628 1259.53L24.835 1256.6C24.669 1256.93 24.5388 1257.27 24.4454 1257.62C24.352 1257.98 24.3048 1258.33 24.3048 1258.68C24.3048 1259.87 24.7255 1260.88 25.5665 1261.72C26.4075 1262.56 27.42 1262.98 28.6036 1262.98C28.8734 1262.98 29.1276 1262.96 29.3663 1262.92C29.6051 1262.88 29.839 1262.82 30.0675 1262.73L34.335 1266.97C34.4595 1267.09 34.6047 1267.16 34.7706 1267.16C34.9367 1267.16 35.0825 1267.09 35.2071 1266.97L36.9513 1265.23C37.0758 1265.1 37.1387 1264.96 37.1388 1264.79C37.1388 1264.62 37.0759 1264.48 36.9513 1264.35L32.7149 1260.09C32.7979 1259.86 32.8609 1259.63 32.9024 1259.4C32.944 1259.17 32.9649 1258.91 32.9649 1258.62C32.9649 1257.44 32.5442 1256.43 31.7032 1255.58C30.8622 1254.74 29.8497 1254.32 28.6661 1254.32Z" fill="url(#paint37_linear_1013_98)"/>
<mask id="mask1_1013_98" style="mask-type:luminance" maskUnits="userSpaceOnUse" x="5" y="1312" width="34" height="34">
<path d="M38.0552 1312.08H5.05518V1345.08H38.0552V1312.08Z" fill="white"/>
</mask>
<g mask="url(#mask1_1013_98)">
<path d="M34.8327 1337.71C34.8327 1339.59 33.2971 1341.12 31.4206 1341.12H11.6892C9.81272 1341.12 8.2771 1339.59 8.2771 1337.71V1328.35H11.6892V1337.71H31.4206V1328.35H34.8327V1337.71ZM31.4206 1317.31C33.2971 1317.31 34.8327 1318.84 34.8327 1320.72V1324.37H31.4206V1320.72H11.6892V1324.37H8.2771V1320.72C8.2771 1318.84 9.81272 1317.31 11.6892 1317.31H31.4206Z" fill="url(#paint38_linear_1013_98)"/>
<path d="M38.0553 1328.13V1332.11H5.05518V1328.13H38.0553Z" fill="url(#paint39_linear_1013_98)"/>
</g>
<path d="M4.9812 1313.99C4.9812 1312.97 5.8099 1312.15 6.82276 1312.15H10.5059V1308.46H6.82276C3.76578 1308.46 1.2981 1310.93 1.2981 1313.99V1317.67H4.9812V1313.99Z" fill="url(#paint40_linear_1013_98)"/>
<path d="M4.9812 1343.45V1339.77H1.2981V1343.45C1.2981 1346.51 3.76578 1348.98 6.82276 1348.98H10.5059V1345.29H6.82276C5.8099 1345.29 4.9812 1344.46 4.9812 1343.45Z" fill="url(#paint41_linear_1013_98)"/>
<path d="M36.2873 1308.46H32.6042V1312.15H36.2873C37.3002 1312.15 38.1289 1312.97 38.1289 1313.99V1317.67H41.812V1313.99C41.812 1310.93 39.3443 1308.46 36.2873 1308.46Z" fill="url(#paint42_linear_1013_98)"/>
<path d="M38.1289 1343.45C38.1289 1344.46 37.3002 1345.29 36.2873 1345.29H32.6042V1348.98H36.2873C39.3443 1348.98 41.812 1346.51 41.812 1343.45V1339.77H38.1289V1343.45Z" fill="url(#paint43_linear_1013_98)"/>
<mask id="mask2_1013_98" style="mask-type:luminance" maskUnits="userSpaceOnUse" x="-1" y="1476" width="45" height="45">
<path d="M36.0999 1476.64H6.78952C2.73309 1476.64 -0.555298 1479.93 -0.555298 1483.98V1513.3C-0.555298 1517.35 2.73309 1520.64 6.78952 1520.64H36.0999C40.1563 1520.64 43.4447 1517.35 43.4447 1513.3V1483.98C43.4447 1479.93 40.1563 1476.64 36.0999 1476.64Z" fill="white"/>
</mask>
<g mask="url(#mask2_1013_98)">
<path d="M34.3467 1478.67C36.3551 1478.67 37.999 1480.44 37.999 1482.61V1483.65H34.679V1481.99H4.79889V1505.23H6.45867V1508.55L4.79889 1508.55C2.79052 1508.55 1.47888 1506.46 1.47888 1504.29V1482.61C1.47888 1480.44 3.12122 1478.67 5.1296 1478.67H34.3467Z" fill="url(#paint44_linear_1013_98)"/>
<path d="M39.4531 1496.93H28.2472C27.3133 1496.93 26.3795 1497.76 26.3795 1498.59V1515.19C26.3795 1516.02 27.3133 1516.85 28.2472 1516.85H39.4531C40.3869 1516.85 41.3208 1516.02 41.3208 1515.19V1498.59C41.3208 1497.76 40.3869 1496.93 39.4531 1496.93ZM37.9995 1513.53L29.6995 1513.53V1500.25H37.9995V1513.53Z" fill="url(#paint45_linear_1013_98)"/>
<path d="M35.094 1486.97C36.5465 1486.97 37.999 1488.04 37.999 1489.11V1493.61H34.679V1490.29H12.9009L13.0994 1505.23H23.0599V1508.55L12.6837 1508.55C11.2316 1508.55 9.77906 1507.48 9.77868 1506.41V1489.11C9.77868 1488.04 11.2314 1486.97 12.6837 1486.97H35.094Z" fill="url(#paint46_linear_1013_98)"/>
</g>
<path d="M34.4238 1416.22C35.0892 1416.22 35.6294 1416.76 35.6296 1417.43V1431.23C32.1719 1431.23 29.3708 1428.42 29.3683 1424.96V1422.49H26.8009C23.3369 1422.49 20.5288 1419.68 20.5288 1416.22H34.4238Z" fill="#111827"/>
<path d="M34.4238 1416.22C35.0892 1416.22 35.6294 1416.76 35.6296 1417.43V1431.23C32.1719 1431.23 29.3708 1428.42 29.3683 1424.96V1422.49H26.8009C23.3369 1422.49 20.5288 1419.68 20.5288 1416.22H34.4238Z" fill="url(#paint47_linear_1013_98)"/>
<path d="M41.2977 1409.31C41.963 1409.31 42.5032 1409.85 42.5035 1410.51V1424.32C40.4906 1424.32 38.7004 1423.37 37.5527 1421.9V1417.43C37.5523 1415.7 36.1501 1414.3 34.4227 1414.3H29.8787C28.3754 1413.15 27.4041 1411.34 27.4027 1409.31H41.2977Z" fill="#111827"/>
<path d="M41.2977 1409.31C41.963 1409.31 42.5032 1409.85 42.5035 1410.51V1424.32C40.4906 1424.32 38.7004 1423.37 37.5527 1421.9V1417.43C37.5523 1415.7 36.1501 1414.3 34.4227 1414.3H29.8787C28.3754 1413.15 27.4041 1411.34 27.4027 1409.31H41.2977Z" fill="url(#paint48_linear_1013_98)"/>
<path d="M37.8373 1392C38.8993 1392 39.7599 1392.86 39.7601 1393.92V1403.54H35.9144V1395.85H5.14343V1418.93H16.6819V1422.77H3.21924C2.15728 1422.77 1.29643 1421.91 1.29639 1420.85V1393.92C1.29658 1392.86 2.15737 1392 3.21924 1392H37.8373Z" fill="#111827"/>
<path d="M37.8373 1392C38.8993 1392 39.7599 1392.86 39.7601 1393.92V1403.54H35.9144V1395.85H5.14343V1418.93H16.6819V1422.77H3.21924C2.15728 1422.77 1.29643 1421.91 1.29639 1420.85V1393.92C1.29658 1392.86 2.15737 1392 3.21924 1392H37.8373Z" fill="url(#paint49_linear_1013_98)"/>
<path d="M26.9984 1399.95C27.6784 1399.27 28.7735 1399.26 29.4678 1399.92C30.1697 1400.59 30.2005 1401.71 29.5362 1402.41L23.0654 1409.31L18.9901 1405.2C18.2458 1404.45 18.2472 1403.24 18.9941 1402.5C19.7448 1401.74 20.9639 1401.75 21.7119 1402.5L23.0654 1403.87L26.9984 1399.95Z" fill="#111827"/>
<path d="M26.9984 1399.95C27.6784 1399.27 28.7735 1399.26 29.4678 1399.92C30.1697 1400.59 30.2005 1401.71 29.5362 1402.41L23.0654 1409.31L18.9901 1405.2C18.2458 1404.45 18.2472 1403.24 18.9941 1402.5C19.7448 1401.74 20.9639 1401.75 21.7119 1402.5L23.0654 1403.87L26.9984 1399.95Z" fill="url(#paint50_linear_1013_98)"/>
<path d="M15.7203 1406.42H9.95044V1402.58H15.7203V1406.42Z" fill="#111827"/>
<path d="M15.7203 1406.42H9.95044V1402.58H15.7203V1406.42Z" fill="url(#paint51_linear_1013_98)"/>
<g clip-path="url(#clip1_1013_98)">
<mask id="mask3_1013_98" style="mask-type:luminance" maskUnits="userSpaceOnUse" x="0" y="1553" width="44" height="45">
<path d="M36.6667 1553.64H7.33333C3.28324 1553.64 0 1556.92 0 1560.97V1590.31C0 1594.36 3.28324 1597.64 7.33333 1597.64H36.6667C40.7168 1597.64 44 1594.36 44 1590.31V1560.97C44 1556.92 40.7168 1553.64 36.6667 1553.64Z" fill="white"/>
</mask>
<g mask="url(#mask3_1013_98)">
<path fill-rule="evenodd" clip-rule="evenodd" d="M36.7236 1579.29C36.9435 1579.29 37.1414 1579.47 37.1855 1579.69L37.5378 1582.11C38.1096 1582.35 38.6374 1582.66 39.1212 1583.01L41.4759 1582.09C41.6956 1582.02 41.9372 1582.09 42.0474 1582.28L43.9402 1585.45C44.0499 1585.63 44.006 1585.89 43.8306 1586.02L41.8283 1587.54C41.8941 1587.83 41.8949 1588.14 41.8949 1588.44C41.8948 1588.75 41.8721 1589.06 41.8283 1589.34H41.8498L43.8306 1590.86C44.006 1591.02 44.0495 1591.24 43.9402 1591.46L42.0474 1594.63C41.9374 1594.85 41.6959 1594.91 41.4759 1594.84L39.1212 1593.92C38.6373 1594.29 38.1098 1594.6 37.5378 1594.82L37.1855 1597.24C37.1631 1597.49 36.9653 1597.64 36.7236 1597.64H32.9617C32.742 1597.64 32.5441 1597.46 32.4998 1597.24L32.1474 1594.82C31.5756 1594.58 31.0479 1594.27 30.564 1593.92L28.2093 1594.84C28.0113 1594.91 27.7478 1594.85 27.6378 1594.63L25.7451 1591.46C25.6358 1591.26 25.6811 1591 25.8568 1590.86L27.857 1589.34C27.7913 1589.06 27.7925 1588.73 27.7925 1588.44C27.7925 1588.14 27.8366 1587.83 27.8806 1587.54L25.8783 1586.02C25.6803 1585.89 25.6587 1585.65 25.7687 1585.45L27.6378 1582.28C27.7479 1582.09 27.9897 1582.02 28.2093 1582.09L30.564 1583.01C31.0479 1582.66 31.5756 1582.33 32.1474 1582.11L32.4998 1579.69C32.5438 1579.45 32.7198 1579.29 32.9617 1579.29H36.7236ZM34.8093 1585.01C32.8516 1585.01 31.2687 1586.55 31.2687 1588.44C31.2692 1590.34 32.8739 1591.88 34.8093 1591.88C36.767 1591.88 38.3516 1590.34 38.3521 1588.44C38.3521 1586.55 36.7453 1585.01 34.8093 1585.01Z" fill="url(#paint52_linear_1013_98)"/>
<path d="M31.5544 1555.75C35.6022 1555.75 38.8806 1559.03 38.8806 1563.08V1566.75H40.7068C41.7183 1566.75 42.5308 1567.57 42.5308 1568.58V1575.9C42.5306 1576.87 41.7623 1577.69 40.7949 1577.73C39.1009 1576.52 37.0528 1575.75 34.8308 1575.57V1563.08C34.8308 1561.25 33.3568 1559.78 31.5308 1559.78H13.2068C11.3808 1559.78 9.90679 1561.25 9.90679 1563.08V1581.43C9.90679 1583.25 11.3808 1584.73 13.2068 1584.73L13.1832 1584.7H22.314C22.0941 1585.58 21.9832 1586.51 21.9832 1587.45C21.9832 1587.87 22.0058 1588.31 22.0498 1588.73H12.8093C9.06959 1588.53 6.05504 1585.52 5.85698 1581.78V1577.73H4.03081C3.0194 1577.73 2.20697 1576.92 2.20679 1575.9V1568.58C2.20679 1567.57 3.02044 1566.75 4.05444 1566.75H5.88062V1563.08C5.88062 1559.03 9.15879 1555.75 13.2068 1555.75H31.5544Z" fill="url(#paint53_linear_1013_98)"/>
<path d="M16.3306 1567.21C17.4743 1567.21 18.3974 1568.01 18.3974 1568.95V1574.14C18.3969 1575.11 17.4739 1575.88 16.3306 1575.88C15.187 1575.88 14.2622 1575.09 14.2617 1574.14V1568.95C14.2617 1567.98 15.1866 1567.21 16.3306 1567.21Z" fill="url(#paint54_linear_1013_98)"/>
<path d="M28.7593 1567.21C29.9033 1567.21 30.8283 1568.01 30.8283 1568.95V1574.14C30.8277 1575.11 29.903 1575.88 28.7593 1575.88C27.6159 1575.88 26.6931 1575.09 26.6925 1574.14V1568.95C26.6925 1567.98 27.6156 1567.21 28.7593 1567.21Z" fill="url(#paint55_linear_1013_98)"/>
</g>
</g>
<g clip-path="url(#clip2_1013_98)">
<mask id="mask4_1013_98" style="mask-type:luminance" maskUnits="userSpaceOnUse" x="0" y="1633" width="44" height="44">
<path d="M36.6667 1633H7.33333C3.28324 1633 0 1636.28 0 1640.33V1669.67C0 1673.72 3.28324 1677 7.33333 1677H36.6667C40.7168 1677 44 1673.72 44 1669.67V1640.33C44 1636.28 40.7168 1633 36.6667 1633Z" fill="white"/>
</mask>
<g mask="url(#mask4_1013_98)">
<path d="M26.9354 1649.45C27.2797 1649.45 27.6243 1649.47 27.9677 1649.5C29.1668 1649.6 29.6542 1650.98 28.9706 1651.9C28.5976 1652.41 27.9746 1652.63 27.3778 1652.61C27.2336 1652.61 27.0871 1652.61 26.9354 1652.61C23.9153 1652.61 21.3642 1653.65 19.2704 1655.75C17.1765 1657.84 16.1308 1660.39 16.1307 1663.41C16.1307 1664.36 16.2598 1665.28 16.5184 1666.19C16.7673 1667.07 17.1161 1667.91 17.5624 1668.71H36.2792C36.7449 1667.93 37.0973 1667.1 37.3348 1666.21C37.5825 1665.29 37.7059 1664.36 37.7059 1663.41C37.7059 1661.92 37.4195 1660.51 36.8456 1659.16C36.3802 1658.06 35.7482 1657.08 34.9501 1656.2C34.5574 1655.78 34.3653 1655.18 34.5057 1654.6C34.6456 1654.02 35.0619 1653.6 35.5516 1653.44C36.0443 1653.28 36.6112 1653.38 37.0311 1653.82C37.9888 1654.82 38.7815 1655.95 39.4091 1657.22C40.3738 1659.16 40.8567 1661.22 40.8573 1663.41C40.8806 1664.66 40.7293 1665.89 40.4032 1667.07C40.0777 1668.26 39.5999 1669.39 38.9725 1670.46L38.9735 1670.46C38.7032 1670.92 38.3371 1671.28 37.8768 1671.52C37.423 1671.75 36.9274 1671.86 36.3934 1671.86H17.4442C16.91 1671.86 16.4138 1671.75 15.9598 1671.52C15.4996 1671.28 15.1335 1670.92 14.8632 1670.46L14.8612 1670.45C14.2578 1669.36 13.7939 1668.23 13.4686 1667.06C13.1427 1665.88 12.9794 1664.67 12.9794 1663.41C12.9794 1661.48 13.3455 1659.67 14.079 1657.97C14.8108 1656.27 15.8048 1654.79 17.0614 1653.54C18.318 1652.28 19.7953 1651.29 21.4911 1650.55C23.1908 1649.82 25.0066 1649.45 26.9354 1649.45Z" fill="url(#paint56_linear_1013_98)"/>
<path d="M32.455 1651.7C32.7765 1651.29 33.4307 1651.57 33.3251 1652.09C33.3198 1652.11 33.3147 1652.14 33.3094 1652.16C32.9846 1653.73 32.6345 1655.29 32.2596 1656.84C31.7209 1659.06 31.1188 1661.29 30.454 1663.51C30.2247 1664.27 29.7378 1664.79 28.993 1665.07C28.2479 1665.36 27.5079 1665.34 26.7743 1665.02C25.995 1664.68 25.4674 1664.12 25.1923 1663.34C24.9171 1662.56 25.0091 1661.84 25.4677 1661.17C26.7974 1659.27 28.1445 1657.4 29.5087 1655.57C30.4709 1654.27 31.4528 1652.98 32.455 1651.7Z" fill="url(#paint57_linear_1013_98)"/>
<path d="M35.6112 1638.14C37.4445 1638.14 38.9442 1639.64 38.9442 1641.47V1650.94C37.943 1649.98 36.8245 1649.13 35.6112 1648.43V1641.47H8.94421V1659.8H10.0175C9.79948 1660.89 9.68347 1662.01 9.68347 1663.15C9.68351 1663.71 9.71079 1664.26 9.76062 1664.8H2.2782V1659.8H5.61121V1641.47C5.61121 1639.64 7.11114 1638.14 8.94421 1638.14H35.6112Z" fill="url(#paint58_linear_1013_98)"/>
</g>
</g>
</g>
<defs>
<linearGradient id="paint0_linear_1013_98" x1="30.4617" y1="7.41457" x2="8.01226" y2="27.0006" gradientUnits="userSpaceOnUse">
<stop stop-color="#B399FF"/>
<stop offset="1" stop-color="#809BFF"/>
</linearGradient>
<linearGradient id="paint1_linear_1013_98" x1="30.4618" y1="7.41457" x2="8.01234" y2="27.0006" gradientUnits="userSpaceOnUse">
<stop stop-color="#B399FF"/>
<stop offset="1" stop-color="#809BFF"/>
</linearGradient>
<linearGradient id="paint2_linear_1013_98" x1="30.4618" y1="7.41457" x2="8.01244" y2="27.0006" gradientUnits="userSpaceOnUse">
<stop stop-color="#B399FF"/>
<stop offset="1" stop-color="#809BFF"/>
</linearGradient>
<linearGradient id="paint3_linear_1013_98" x1="30.4617" y1="7.4146" x2="8.01229" y2="27.0006" gradientUnits="userSpaceOnUse">
<stop stop-color="#B399FF"/>
<stop offset="1" stop-color="#809BFF"/>
</linearGradient>
<linearGradient id="paint4_linear_1013_98" x1="30.7162" y1="69.3902" x2="3.37063" y2="88.4763" gradientUnits="userSpaceOnUse">
<stop stop-color="#B399FF"/>
<stop offset="1" stop-color="#809BFF"/>
</linearGradient>
<linearGradient id="paint5_linear_1013_98" x1="30.7163" y1="69.3902" x2="3.37082" y2="88.4763" gradientUnits="userSpaceOnUse">
<stop stop-color="#B399FF"/>
<stop offset="1" stop-color="#809BFF"/>
</linearGradient>
<linearGradient id="paint6_linear_1013_98" x1="30.7164" y1="69.3902" x2="3.3708" y2="88.4763" gradientUnits="userSpaceOnUse">
<stop stop-color="#B399FF"/>
<stop offset="1" stop-color="#809BFF"/>
</linearGradient>
<linearGradient id="paint7_linear_1013_98" x1="30.031" y1="137.656" x2="6.53521" y2="155.877" gradientUnits="userSpaceOnUse">
<stop stop-color="#B399FF"/>
<stop offset="1" stop-color="#809BFF"/>
</linearGradient>
<linearGradient id="paint8_linear_1013_98" x1="30.0314" y1="137.656" x2="6.53544" y2="155.877" gradientUnits="userSpaceOnUse">
<stop stop-color="#B399FF"/>
<stop offset="1" stop-color="#809BFF"/>
</linearGradient>
<linearGradient id="paint9_linear_1013_98" x1="31.4796" y1="201.302" x2="3.76172" y2="222.582" gradientUnits="userSpaceOnUse">
<stop stop-color="#AE92FF"/>
<stop offset="1" stop-color="#7694FF"/>
</linearGradient>
<linearGradient id="paint10_linear_1013_98" x1="30.4505" y1="269.945" x2="2.9293" y2="288.093" gradientUnits="userSpaceOnUse">
<stop stop-color="#B399FF"/>
<stop offset="1" stop-color="#809BFF"/>
</linearGradient>
<linearGradient id="paint11_linear_1013_98" x1="30.2388" y1="339.872" x2="3.24696" y2="357.534" gradientUnits="userSpaceOnUse">
<stop stop-color="#B399FF"/>
<stop offset="1" stop-color="#809BFF"/>
</linearGradient>
<linearGradient id="paint12_linear_1013_98" x1="29.1893" y1="408.492" x2="6.40141" y2="424.397" gradientUnits="userSpaceOnUse">
<stop stop-color="#B399FF"/>
<stop offset="1" stop-color="#809BFF"/>
</linearGradient>
<linearGradient id="paint13_linear_1013_98" x1="31.352" y1="472.101" x2="3.98936" y2="493.108" gradientUnits="userSpaceOnUse">
<stop stop-color="#B399FF"/>
<stop offset="1" stop-color="#809BFF"/>
</linearGradient>
<linearGradient id="paint14_linear_1013_98" x1="19.3419" y1="539.661" x2="1.00987" y2="547.48" gradientUnits="userSpaceOnUse">
<stop stop-color="#B399FF"/>
<stop offset="1" stop-color="#809BFF"/>
</linearGradient>
<linearGradient id="paint15_linear_1013_98" x1="28.1438" y1="546.141" x2="10.4654" y2="554.699" gradientUnits="userSpaceOnUse">
<stop stop-color="#B399FF"/>
<stop offset="1" stop-color="#809BFF"/>
</linearGradient>
<linearGradient id="paint16_linear_1013_98" x1="32.9003" y1="558.358" x2="19.7986" y2="567.118" gradientUnits="userSpaceOnUse">
<stop stop-color="#B399FF"/>
<stop offset="1" stop-color="#809BFF"/>
</linearGradient>
<linearGradient id="paint17_linear_1013_98" x1="22.0348" y1="611.874" x2="3.30856" y2="619.855" gradientUnits="userSpaceOnUse">
<stop stop-color="#AE92FF"/>
<stop offset="1" stop-color="#7694FF"/>
</linearGradient>
<linearGradient id="paint18_linear_1013_98" x1="31.0191" y1="618.494" x2="12.9598" y2="627.23" gradientUnits="userSpaceOnUse">
<stop stop-color="#B399FF"/>
<stop offset="1" stop-color="#809BFF"/>
</linearGradient>
<linearGradient id="paint19_linear_1013_98" x1="29.788" y1="680.534" x2="5.21312" y2="697.686" gradientUnits="userSpaceOnUse">
<stop stop-color="#B399FF"/>
<stop offset="1" stop-color="#809BFF"/>
</linearGradient>
<linearGradient id="paint20_linear_1013_98" x1="31.1921" y1="746.343" x2="3.34502" y2="766.734" gradientUnits="userSpaceOnUse">
<stop stop-color="#AE92FF"/>
<stop offset="1" stop-color="#7694FF"/>
</linearGradient>
<linearGradient id="paint21_linear_1013_98" x1="31.7342" y1="815.087" x2="5.25425" y2="837.343" gradientUnits="userSpaceOnUse">
<stop stop-color="#AE92FF"/>
<stop offset="1" stop-color="#7694FF"/>
</linearGradient>
<linearGradient id="paint22_linear_1013_98" x1="31.7341" y1="880.505" x2="10.177" y2="903.074" gradientUnits="userSpaceOnUse">
<stop stop-color="#AE92FF"/>
<stop offset="1" stop-color="#7694FF"/>
</linearGradient>
<linearGradient id="paint23_linear_1013_98" x1="31.8152" y1="942.203" x2="4.28088" y2="962.837" gradientUnits="userSpaceOnUse">
<stop stop-color="#B399FF"/>
<stop offset="1" stop-color="#809BFF"/>
</linearGradient>
<linearGradient id="paint24_linear_1013_98" x1="22.6742" y1="1008.39" x2="9.04754" y2="1022.42" gradientUnits="userSpaceOnUse">
<stop stop-color="#AE92FF"/>
<stop offset="1" stop-color="#7694FF"/>
</linearGradient>
<linearGradient id="paint25_linear_1013_98" x1="26.8303" y1="1018.35" x2="10.6622" y2="1035.28" gradientUnits="userSpaceOnUse">
<stop stop-color="#AE92FF"/>
<stop offset="1" stop-color="#7694FF"/>
</linearGradient>
<linearGradient id="paint26_linear_1013_98" x1="36.3315" y1="1027.95" x2="25.6922" y2="1033.14" gradientUnits="userSpaceOnUse">
<stop stop-color="#AE92FF"/>
<stop offset="1" stop-color="#7694FF"/>
</linearGradient>
<linearGradient id="paint27_linear_1013_98" x1="27.5628" y1="1084.56" x2="3.61023" y2="1101.28" gradientUnits="userSpaceOnUse">
<stop stop-color="#B399FF"/>
<stop offset="1" stop-color="#809BFF"/>
</linearGradient>
<linearGradient id="paint28_linear_1013_98" x1="27.5626" y1="1084.56" x2="3.60972" y2="1101.28" gradientUnits="userSpaceOnUse">
<stop stop-color="#B399FF"/>
<stop offset="1" stop-color="#809BFF"/>
</linearGradient>
<linearGradient id="paint29_linear_1013_98" x1="27.563" y1="1084.56" x2="3.61003" y2="1101.28" gradientUnits="userSpaceOnUse">
<stop stop-color="#B399FF"/>
<stop offset="1" stop-color="#809BFF"/>
</linearGradient>
<linearGradient id="paint30_linear_1013_98" x1="30.7988" y1="1160.65" x2="2.97401" y2="1180.1" gradientUnits="userSpaceOnUse">
<stop stop-color="#B399FF"/>
<stop offset="1" stop-color="#809BFF"/>
</linearGradient>
<linearGradient id="paint31_linear_1013_98" x1="30.7988" y1="1160.65" x2="2.97401" y2="1180.1" gradientUnits="userSpaceOnUse">
<stop stop-color="#B399FF"/>
<stop offset="1" stop-color="#809BFF"/>
</linearGradient>
<linearGradient id="paint32_linear_1013_98" x1="30.7988" y1="1160.65" x2="2.97411" y2="1180.1" gradientUnits="userSpaceOnUse">
<stop stop-color="#B399FF"/>
<stop offset="1" stop-color="#809BFF"/>
</linearGradient>
<linearGradient id="paint33_linear_1013_98" x1="30.7988" y1="1160.65" x2="2.97411" y2="1180.1" gradientUnits="userSpaceOnUse">
<stop stop-color="#B399FF"/>
<stop offset="1" stop-color="#809BFF"/>
</linearGradient>
<linearGradient id="paint34_linear_1013_98" x1="30.7988" y1="1160.65" x2="2.9746" y2="1180.1" gradientUnits="userSpaceOnUse">
<stop stop-color="#B399FF"/>
<stop offset="1" stop-color="#809BFF"/>
</linearGradient>
<linearGradient id="paint35_linear_1013_98" x1="27.2028" y1="1236.35" x2="2.13602" y2="1253.84" gradientUnits="userSpaceOnUse">
<stop stop-color="#B399FF"/>
<stop offset="1" stop-color="#809BFF"/>
</linearGradient>
<linearGradient id="paint36_linear_1013_98" x1="27.2027" y1="1236.35" x2="2.13634" y2="1253.84" gradientUnits="userSpaceOnUse">
<stop stop-color="#B399FF"/>
<stop offset="1" stop-color="#809BFF"/>
</linearGradient>
<linearGradient id="paint37_linear_1013_98" x1="35.8542" y1="1253.12" x2="20.5355" y2="1263.81" gradientUnits="userSpaceOnUse">
<stop stop-color="#B399FF"/>
<stop offset="1" stop-color="#809BFF"/>
</linearGradient>
<linearGradient id="paint38_linear_1013_98" x1="21.5549" y1="1317.31" x2="21.5549" y2="1341.12" gradientUnits="userSpaceOnUse">
<stop stop-color="#B399FF"/>
<stop offset="1" stop-color="#809BFF"/>
</linearGradient>
<linearGradient id="paint39_linear_1013_98" x1="5.05518" y1="1330.12" x2="38.0553" y2="1330.12" gradientUnits="userSpaceOnUse">
<stop stop-color="#B399FF"/>
<stop offset="1" stop-color="#809BFF"/>
</linearGradient>
<linearGradient id="paint40_linear_1013_98" x1="21.5552" y1="1308.46" x2="21.5552" y2="1348.98" gradientUnits="userSpaceOnUse">
<stop stop-color="#B399FF"/>
<stop offset="1" stop-color="#809BFF"/>
</linearGradient>
<linearGradient id="paint41_linear_1013_98" x1="21.5552" y1="1308.46" x2="21.5552" y2="1348.98" gradientUnits="userSpaceOnUse">
<stop stop-color="#B399FF"/>
<stop offset="1" stop-color="#809BFF"/>
</linearGradient>
<linearGradient id="paint42_linear_1013_98" x1="21.5549" y1="1308.46" x2="21.5549" y2="1348.98" gradientUnits="userSpaceOnUse">
<stop stop-color="#B399FF"/>
<stop offset="1" stop-color="#809BFF"/>
</linearGradient>
<linearGradient id="paint43_linear_1013_98" x1="21.5549" y1="1308.46" x2="21.5549" y2="1348.98" gradientUnits="userSpaceOnUse">
<stop stop-color="#B399FF"/>
<stop offset="1" stop-color="#809BFF"/>
</linearGradient>
<linearGradient id="paint44_linear_1013_98" x1="31.5385" y1="1483.33" x2="2.13055" y2="1504.74" gradientUnits="userSpaceOnUse">
<stop stop-color="#B399FF"/>
<stop offset="1" stop-color="#809BFF"/>
</linearGradient>
<linearGradient id="paint45_linear_1013_98" x1="31.5385" y1="1483.33" x2="2.13055" y2="1504.74" gradientUnits="userSpaceOnUse">
<stop stop-color="#B399FF"/>
<stop offset="1" stop-color="#809BFF"/>
</linearGradient>
<linearGradient id="paint46_linear_1013_98" x1="31.5385" y1="1483.33" x2="2.13055" y2="1504.74" gradientUnits="userSpaceOnUse">
<stop stop-color="#B399FF"/>
<stop offset="1" stop-color="#809BFF"/>
</linearGradient>
<linearGradient id="paint47_linear_1013_98" x1="42.1802" y1="1392.46" x2="-6.45006" y2="1415.12" gradientUnits="userSpaceOnUse">
<stop stop-color="#AE92FF"/>
<stop offset="1" stop-color="#7694FF"/>
</linearGradient>
<linearGradient id="paint48_linear_1013_98" x1="42.1804" y1="1392.46" x2="-6.4496" y2="1415.12" gradientUnits="userSpaceOnUse">
<stop stop-color="#AE92FF"/>
<stop offset="1" stop-color="#7694FF"/>
</linearGradient>
<linearGradient id="paint49_linear_1013_98" x1="42.1803" y1="1392.46" x2="-6.44994" y2="1415.12" gradientUnits="userSpaceOnUse">
<stop stop-color="#AE92FF"/>
<stop offset="1" stop-color="#7694FF"/>
</linearGradient>
<linearGradient id="paint50_linear_1013_98" x1="42.1803" y1="1392.46" x2="-6.45014" y2="1415.12" gradientUnits="userSpaceOnUse">
<stop stop-color="#AE92FF"/>
<stop offset="1" stop-color="#7694FF"/>
</linearGradient>
<linearGradient id="paint51_linear_1013_98" x1="42.1802" y1="1392.46" x2="-6.45078" y2="1415.12" gradientUnits="userSpaceOnUse">
<stop stop-color="#AE92FF"/>
<stop offset="1" stop-color="#7694FF"/>
</linearGradient>
<linearGradient id="paint52_linear_1013_98" x1="33.7386" y1="1560.86" x2="1.94544" y2="1583" gradientUnits="userSpaceOnUse">
<stop stop-color="#B399FF"/>
<stop offset="1" stop-color="#809BFF"/>
</linearGradient>
<linearGradient id="paint53_linear_1013_98" x1="33.7386" y1="1560.86" x2="1.94543" y2="1583" gradientUnits="userSpaceOnUse">
<stop stop-color="#B399FF"/>
<stop offset="1" stop-color="#809BFF"/>
</linearGradient>
<linearGradient id="paint54_linear_1013_98" x1="33.7386" y1="1560.86" x2="1.94545" y2="1583" gradientUnits="userSpaceOnUse">
<stop stop-color="#B399FF"/>
<stop offset="1" stop-color="#809BFF"/>
</linearGradient>
<linearGradient id="paint55_linear_1013_98" x1="33.7386" y1="1560.86" x2="1.94543" y2="1583" gradientUnits="userSpaceOnUse">
<stop stop-color="#B399FF"/>
<stop offset="1" stop-color="#809BFF"/>
</linearGradient>
<linearGradient id="paint56_linear_1013_98" x1="32.4474" y1="1643.36" x2="0.73489" y2="1664.02" gradientUnits="userSpaceOnUse">
<stop stop-color="#B399FF"/>
<stop offset="1" stop-color="#809BFF"/>
</linearGradient>
<linearGradient id="paint57_linear_1013_98" x1="32.4474" y1="1643.36" x2="0.73489" y2="1664.02" gradientUnits="userSpaceOnUse">
<stop stop-color="#B399FF"/>
<stop offset="1" stop-color="#809BFF"/>
</linearGradient>
<linearGradient id="paint58_linear_1013_98" x1="32.4474" y1="1643.36" x2="0.73489" y2="1664.02" gradientUnits="userSpaceOnUse">
<stop stop-color="#B399FF"/>
<stop offset="1" stop-color="#809BFF"/>
</linearGradient>
<clipPath id="clip0_1013_98">
<rect width="44" height="1677" fill="white"/>
</clipPath>
<clipPath id="clip1_1013_98">
<rect width="44" height="44" fill="white" transform="translate(0 1553.64)"/>
</clipPath>
<clipPath id="clip2_1013_98">
<rect width="44" height="44" fill="white" transform="translate(0 1633)"/>
</clipPath>
</defs>
</svg>