<svg xmlns="http://www.w3.org/2000/svg" width="44" height="44" viewBox="0 0 44 44.0" fill="none">
  <defs>
    <linearGradient id="i14_p22" x1="31.7341" y1="880.505" x2="10.177" y2="903.074" gradientUnits="userSpaceOnUse">
<stop stop-color="#AE92FF"/>
<stop offset="1" stop-color="#7694FF"/>
</linearGradient>
  </defs>
  <g transform="translate(0,-866.5)">
    <path d="M34.8885 880.587H4.88851V877.253H34.8885C36.7219 877.253 38.2219 878.753 38.2219 880.587V898.92H41.5552V903.92H18.2219V898.92H34.8885V880.587ZM3.22185 883.92H13.2219C14.1385 883.92 14.8885 884.67 14.8885 885.587V902.253C14.8885 903.17 14.1385 903.92 13.2219 903.92H3.22185C2.30518 903.92 1.55518 903.17 1.55518 902.253V885.587C1.55518 884.67 2.30518 883.92 3.22185 883.92ZM4.88851 898.92H11.5552V887.253H4.88851V898.92Z" fill="url(#i14_p22)"/>
  </g>
</svg>