<svg xmlns="http://www.w3.org/2000/svg" width="44" height="44" viewBox="0 0 44 44.0" fill="none">
  <defs>
    <linearGradient id="i4_p9" x1="31.4796" y1="201.302" x2="3.76172" y2="222.582" gradientUnits="userSpaceOnUse">
<stop stop-color="#AE92FF"/>
<stop offset="1" stop-color="#7694FF"/>
</linearGradient>
  </defs>
  <g transform="translate(0,-187.3)">
    <path fill-rule="evenodd" clip-rule="evenodd" d="M22.8715 197.031C23.8213 197.269 24.3989 198.231 24.1613 199.181L17.9568 223.999C17.7194 224.949 16.757 225.527 15.8071 225.289C14.8572 225.052 14.2798 224.089 14.5172 223.139L20.7219 198.321C20.9592 197.371 21.9216 196.794 22.8715 197.031ZM14.0758 202.962C14.6875 203.726 14.5635 204.842 13.799 205.454L6.66566 211.16L13.799 216.867C14.5635 217.478 14.6875 218.594 14.0758 219.359C13.4642 220.123 12.3487 220.247 11.5842 219.635L2.72049 212.545C2.29998 212.208 2.05518 211.699 2.05518 211.16C2.05518 210.622 2.29998 210.112 2.72049 209.776L11.5842 202.685C12.3487 202.073 13.4642 202.197 14.0758 202.962ZM25.4891 202.962C26.1007 202.197 27.2163 202.073 27.9808 202.685L36.8445 209.776C37.6091 210.388 37.733 211.503 37.1214 212.268C36.5098 213.032 35.3942 213.156 34.6296 212.545L25.766 205.454C25.0014 204.842 24.8775 203.726 25.4891 202.962ZM39.0258 223.569C39.0258 223.874 39.0069 224.16 38.9689 224.437L40.8767 225.896C41.0572 226.025 41.1045 226.256 40.9907 226.459L39.1682 229.525C39.0544 229.728 38.817 229.802 38.6082 229.728L36.3396 228.841C35.8744 229.192 35.3619 229.488 34.8019 229.709L34.4602 232.055C34.4318 232.276 34.2419 232.433 34.0141 232.433H30.3691C30.1413 232.433 29.961 232.276 29.9135 232.055L29.5719 229.709C29.0119 229.488 28.5088 229.192 28.034 228.841L25.7655 229.728C25.5566 229.792 25.3194 229.728 25.2054 229.525L23.3831 226.459C23.2787 226.275 23.326 226.025 23.4969 225.896L25.4238 224.437C25.3763 224.16 25.3574 223.856 25.3574 223.569C25.3574 223.283 25.3953 222.979 25.4428 222.701L23.5159 221.243C23.326 221.113 23.2881 220.873 23.402 220.679L25.215 217.614C25.3288 217.411 25.5662 217.337 25.775 217.411L28.0436 218.297C28.5088 217.956 29.0212 217.651 29.5813 217.43L29.923 215.084C29.961 214.863 30.1413 214.706 30.3691 214.706H34.0141C34.2419 214.706 34.4318 214.863 34.4697 215.084L34.8113 217.43C35.3713 217.651 35.8744 217.946 36.3492 218.297L38.6177 217.411C38.8266 217.346 39.0638 217.411 39.1777 217.614L41.0001 220.679C41.1045 220.864 41.0572 221.113 40.8863 221.243L38.9593 222.701C39.0069 222.979 39.0258 223.274 39.0258 223.569ZM28.7745 223.569C28.7745 225.397 30.3122 226.893 32.1916 226.893C34.071 226.893 35.6087 225.397 35.6087 223.569C35.6087 221.741 34.071 220.245 32.1916 220.245C30.3122 220.245 28.7745 221.741 28.7745 223.569Z" fill="url(#i4_p9)"/>
  </g>
</svg>