<svg xmlns="http://www.w3.org/2000/svg" width="44" height="44" viewBox="0 0 44 44.0" fill="none">
  <defs>
    <linearGradient id="i12_p20" x1="31.1921" y1="746.343" x2="3.34502" y2="766.734" gradientUnits="userSpaceOnUse">
<stop stop-color="#AE92FF"/>
<stop offset="1" stop-color="#7694FF"/>
</linearGradient>
  </defs>
  <g transform="translate(0,-732.3)">
    <path fill-rule="evenodd" clip-rule="evenodd" d="M21.9336 743.662C21.9336 742.712 21.1629 741.941 20.2122 741.941C19.2615 741.941 18.4909 742.712 18.4909 743.662V745.434C16.5809 745.576 14.7537 746.016 13.0562 746.691L12.3831 745.094C12.0141 744.218 11.0046 743.807 10.1285 744.176C9.25231 744.545 8.84131 745.554 9.21041 746.43L9.97811 748.252C8.77581 749.006 7.67413 749.881 6.6966 750.847L5.55889 749.709C4.88666 749.037 3.79677 749.037 3.12453 749.709C2.4523 750.381 2.4523 751.471 3.12453 752.143L4.47827 753.497C3.75368 754.558 3.16417 755.677 2.73104 756.826C2.58347 757.217 2.58347 757.649 2.73102 758.04C5.04653 764.182 11.8309 769.483 19.8341 769.483C20.7848 769.483 21.5554 768.712 21.5554 767.761C21.5554 766.811 20.7848 766.04 19.8341 766.04C13.5727 766.04 8.24104 762.02 6.20182 757.433C8.24106 752.847 13.5728 748.826 19.8341 748.826C26.3702 748.826 31.8934 753.208 33.7156 758.04C34.0509 758.93 35.044 759.379 35.9336 759.044C36.823 758.708 37.2723 757.715 36.937 756.826C36.5039 755.677 35.9143 754.558 35.1898 753.497L36.5435 752.143C37.2156 751.471 37.2156 750.381 36.5435 749.709C35.8713 749.037 34.7813 749.037 34.1091 749.709L32.9713 750.847C31.9147 749.803 30.713 748.865 29.396 748.072L30.1596 746.453C30.565 745.593 30.1968 744.567 29.337 744.162C28.477 743.756 27.4512 744.125 27.0457 744.984L26.2981 746.57C24.9174 746.049 23.4544 745.683 21.9336 745.506V743.662ZM19.834 764.267C23.6366 764.267 26.7194 761.184 26.7194 757.381C26.7194 753.579 23.6366 750.496 19.834 750.496C16.0313 750.496 12.9486 753.579 12.9486 757.381C12.9486 761.184 16.0313 764.267 19.834 764.267ZM22.2788 758.05C23.7504 758.05 24.9432 756.857 24.9432 755.386C24.9432 753.914 23.7504 752.722 22.2788 752.722C20.8074 752.722 19.6147 753.914 19.6147 755.386C19.6147 756.857 20.8074 758.05 22.2788 758.05ZM38.4644 770.272C38.5012 770.003 38.5196 769.726 38.5196 769.43C38.5196 769.143 38.5012 768.856 38.4551 768.587L40.3262 767.17C40.4921 767.045 40.5381 766.803 40.4367 766.624L38.6671 763.647C38.5565 763.45 38.3261 763.387 38.1234 763.45L35.9205 764.31C35.4596 763.97 34.971 763.683 34.4273 763.468L34.0956 761.19C34.0587 760.975 33.8744 760.823 33.6532 760.823H30.1137C29.8925 760.823 29.7174 760.975 29.6806 761.19L29.3487 763.468C28.805 763.683 28.3073 763.979 27.8556 764.31L25.6528 763.45C25.45 763.378 25.2195 763.45 25.109 763.647L23.3486 766.624C23.2379 766.812 23.2747 767.045 23.4591 767.17L25.3302 768.587C25.2841 768.856 25.2472 769.152 25.2472 769.43C25.2472 769.708 25.2657 770.003 25.3118 770.272L23.4407 771.689C23.2747 771.814 23.2288 772.056 23.3302 772.236L25.0997 775.212C25.2104 775.41 25.4407 775.472 25.6435 775.41L27.8463 774.549C28.3073 774.89 28.7958 775.176 29.3396 775.392L29.6713 777.669C29.7174 777.884 29.8925 778.036 30.1137 778.036H33.6532C33.8744 778.036 34.0587 777.884 34.0863 777.669L34.4181 775.392C34.9619 775.176 35.4596 774.89 35.9112 774.549L38.1141 775.41C38.3168 775.481 38.5473 775.41 38.6578 775.212L40.4276 772.236C40.5381 772.039 40.4921 771.814 40.3169 771.689L38.4644 770.272ZM31.8834 772.657C30.0584 772.657 28.5653 771.205 28.5653 769.43C28.5653 767.655 30.0584 766.202 31.8834 766.202C33.7084 766.202 35.2015 767.655 35.2015 769.43C35.2015 771.205 33.7084 772.657 31.8834 772.657Z" fill="url(#i12_p20)"/>
  </g>
</svg>