<svg xmlns="http://www.w3.org/2000/svg" width="44" height="44" viewBox="0 0 44 44.0" fill="none">
  <defs>
    <linearGradient id="i8_p13" x1="31.352" y1="472.101" x2="3.98936" y2="493.108" gradientUnits="userSpaceOnUse">
<stop stop-color="#B399FF"/>
<stop offset="1" stop-color="#809BFF"/>
</linearGradient>
  </defs>
  <g transform="translate(0,-458.1)">
    <path fill-rule="evenodd" clip-rule="evenodd" d="M2.30615 469.583C2.30615 468.617 3.08965 467.833 4.05615 467.833H35.5562C36.5227 467.833 37.3062 468.617 37.3062 469.583V480.958C37.3062 481.924 36.5227 482.708 35.5562 482.708C34.5897 482.708 33.8062 481.924 33.8062 480.958V473.083H5.80625V471.333L5.80615 492.333H18.0562C19.0227 492.333 19.8062 493.116 19.8062 494.083C19.8062 495.049 19.0227 495.833 18.0562 495.833H4.05615C3.08965 495.833 2.30615 495.049 2.30615 494.083V469.583ZM22.4313 479.58L23.2538 477.783L25.0563 476.975L23.2538 476.168L22.4313 474.371L21.6263 476.168L19.8063 476.975L21.6263 477.783L22.4313 479.58ZM27.6813 478.712C26.4125 478.712 25.7038 479.962 25.9925 480.891L22.8863 483.981C22.6238 483.903 22.2388 483.903 21.9763 483.981L19.745 481.768C20.0425 480.839 19.3338 479.58 18.0563 479.58C16.7875 479.58 16.07 480.83 16.3675 481.768L12.3775 485.718C11.4413 485.431 10.1813 486.134 10.1813 487.393C10.1813 488.348 10.9688 489.13 11.9313 489.13C13.2 489.13 13.9088 487.879 13.62 486.95L17.6013 482.992C17.8638 483.07 18.2488 483.07 18.5113 482.992L20.7425 485.205C20.445 486.134 21.1538 487.393 22.4313 487.393C23.7 487.393 24.4175 486.143 24.12 485.205L27.235 482.124C28.1713 482.41 29.4313 481.707 29.4313 480.448C29.4313 479.493 28.6438 478.712 27.6813 478.712ZM12.8063 479.58L12.3688 481.316L11.9313 479.58L10.1813 479.146L11.9313 478.712L12.3688 476.975L12.8063 478.712L14.5563 479.146L12.8063 479.58ZM38.801 494.084C38.801 494.385 38.7822 494.667 38.7448 494.941L40.6282 496.381C40.8062 496.509 40.8531 496.736 40.7406 496.937L38.9415 499.963C38.8291 500.164 38.5948 500.236 38.3887 500.164L36.1492 499.289C35.69 499.635 35.184 499.927 34.6312 500.145L34.2939 502.46C34.2657 502.679 34.0783 502.834 33.8534 502.834H30.2552C30.0304 502.834 29.8523 502.679 29.8055 502.46L29.4681 500.145C28.9153 499.927 28.4187 499.635 27.9502 499.289L25.7106 500.164C25.5045 500.227 25.2702 500.164 25.1578 499.963L23.3587 496.937C23.2556 496.755 23.3025 496.509 23.4711 496.381L25.3733 494.941C25.3265 494.667 25.3077 494.367 25.3077 494.084C25.3077 493.802 25.3452 493.501 25.3921 493.227L23.4899 491.787C23.3025 491.66 23.265 491.423 23.3774 491.231L25.1672 488.205C25.2796 488.005 25.5139 487.932 25.72 488.005L27.9595 488.88C28.4187 488.542 28.9247 488.242 29.4775 488.023L29.8148 485.708C29.8523 485.489 30.0304 485.334 30.2552 485.334H33.8534C34.0783 485.334 34.2657 485.489 34.3032 485.708L34.6406 488.023C35.1934 488.242 35.69 488.533 36.1585 488.88L38.3981 488.005C38.6042 487.941 38.8385 488.005 38.9509 488.205L40.75 491.231C40.8531 491.414 40.8062 491.66 40.6376 491.787L38.7354 493.227C38.7822 493.501 38.801 493.792 38.801 494.084ZM28.681 494.084C28.681 495.889 30.199 497.365 32.0543 497.365C33.9097 497.365 35.4277 495.889 35.4277 494.084C35.4277 492.279 33.9097 490.803 32.0543 490.803C30.199 490.803 28.681 492.279 28.681 494.084Z" fill="url(#i8_p13)"/>
  </g>
</svg>