<svg xmlns="http://www.w3.org/2000/svg" width="44" height="44" viewBox="0 0 44 44.0" fill="none">
  <defs>
    <linearGradient id="i21_p44" x1="31.5385" y1="1483.33" x2="2.13055" y2="1504.74" gradientUnits="userSpaceOnUse">
<stop stop-color="#B399FF"/>
<stop offset="1" stop-color="#809BFF"/>
</linearGradient>
    <linearGradient id="i21_p45" x1="31.5385" y1="1483.33" x2="2.13055" y2="1504.74" gradientUnits="userSpaceOnUse">
<stop stop-color="#B399FF"/>
<stop offset="1" stop-color="#809BFF"/>
</linearGradient>
    <linearGradient id="i21_p46" x1="31.5385" y1="1483.33" x2="2.13055" y2="1504.74" gradientUnits="userSpaceOnUse">
<stop stop-color="#B399FF"/>
<stop offset="1" stop-color="#809BFF"/>
</linearGradient>
    <linearGradient id="i21_p47" x1="42.1802" y1="1392.46" x2="-6.45006" y2="1415.12" gradientUnits="userSpaceOnUse">
<stop stop-color="#AE92FF"/>
<stop offset="1" stop-color="#7694FF"/>
</linearGradient>
    <linearGradient id="i21_p48" x1="42.1804" y1="1392.46" x2="-6.4496" y2="1415.12" gradientUnits="userSpaceOnUse">
<stop stop-color="#AE92FF"/>
<stop offset="1" stop-color="#7694FF"/>
</linearGradient>
    <linearGradient id="i21_p49" x1="42.1803" y1="1392.46" x2="-6.44994" y2="1415.12" gradientUnits="userSpaceOnUse">
<stop stop-color="#AE92FF"/>
<stop offset="1" stop-color="#7694FF"/>
</linearGradient>
    <linearGradient id="i21_p50" x1="42.1803" y1="1392.46" x2="-6.45014" y2="1415.12" gradientUnits="userSpaceOnUse">
<stop stop-color="#AE92FF"/>
<stop offset="1" stop-color="#7694FF"/>
</linearGradient>
    <linearGradient id="i21_p51" x1="42.1802" y1="1392.46" x2="-6.45078" y2="1415.12" gradientUnits="userSpaceOnUse">
<stop stop-color="#AE92FF"/>
<stop offset="1" stop-color="#7694FF"/>
</linearGradient>
  </defs>
  <g transform="translate(0,-1378.5)">
    <path d="M34.3467 1478.67C36.3551 1478.67 37.999 1480.44 37.999 1482.61V1483.65H34.679V1481.99H4.79889V1505.23H6.45867V1508.55L4.79889 1508.55C2.79052 1508.55 1.47888 1506.46 1.47888 1504.29V1482.61C1.47888 1480.44 3.12122 1478.67 5.1296 1478.67H34.3467Z" fill="url(#i21_p44)"/>
    <path d="M39.4531 1496.93H28.2472C27.3133 1496.93 26.3795 1497.76 26.3795 1498.59V1515.19C26.3795 1516.02 27.3133 1516.85 28.2472 1516.85H39.4531C40.3869 1516.85 41.3208 1516.02 41.3208 1515.19V1498.59C41.3208 1497.76 40.3869 1496.93 39.4531 1496.93ZM37.9995 1513.53L29.6995 1513.53V1500.25H37.9995V1513.53Z" fill="url(#i21_p45)"/>
    <path d="M35.094 1486.97C36.5465 1486.97 37.999 1488.04 37.999 1489.11V1493.61H34.679V1490.29H12.9009L13.0994 1505.23H23.0599V1508.55L12.6837 1508.55C11.2316 1508.55 9.77906 1507.48 9.77868 1506.41V1489.11C9.77868 1488.04 11.2314 1486.97 12.6837 1486.97H35.094Z" fill="url(#i21_p46)"/>
    <path d="M34.4238 1416.22C35.0892 1416.22 35.6294 1416.76 35.6296 1417.43V1431.23C32.1719 1431.23 29.3708 1428.42 29.3683 1424.96V1422.49H26.8009C23.3369 1422.49 20.5288 1419.68 20.5288 1416.22H34.4238Z" fill="#111827"/>
    <path d="M34.4238 1416.22C35.0892 1416.22 35.6294 1416.76 35.6296 1417.43V1431.23C32.1719 1431.23 29.3708 1428.42 29.3683 1424.96V1422.49H26.8009C23.3369 1422.49 20.5288 1419.68 20.5288 1416.22H34.4238Z" fill="url(#i21_p47)"/>
    <path d="M41.2977 1409.31C41.963 1409.31 42.5032 1409.85 42.5035 1410.51V1424.32C40.4906 1424.32 38.7004 1423.37 37.5527 1421.9V1417.43C37.5523 1415.7 36.1501 1414.3 34.4227 1414.3H29.8787C28.3754 1413.15 27.4041 1411.34 27.4027 1409.31H41.2977Z" fill="#111827"/>
    <path d="M41.2977 1409.31C41.963 1409.31 42.5032 1409.85 42.5035 1410.51V1424.32C40.4906 1424.32 38.7004 1423.37 37.5527 1421.9V1417.43C37.5523 1415.7 36.1501 1414.3 34.4227 1414.3H29.8787C28.3754 1413.15 27.4041 1411.34 27.4027 1409.31H41.2977Z" fill="url(#i21_p48)"/>
    <path d="M37.8373 1392C38.8993 1392 39.7599 1392.86 39.7601 1393.92V1403.54H35.9144V1395.85H5.14343V1418.93H16.6819V1422.77H3.21924C2.15728 1422.77 1.29643 1421.91 1.29639 1420.85V1393.92C1.29658 1392.86 2.15737 1392 3.21924 1392H37.8373Z" fill="#111827"/>
    <path d="M37.8373 1392C38.8993 1392 39.7599 1392.86 39.7601 1393.92V1403.54H35.9144V1395.85H5.14343V1418.93H16.6819V1422.77H3.21924C2.15728 1422.77 1.29643 1421.91 1.29639 1420.85V1393.92C1.29658 1392.86 2.15737 1392 3.21924 1392H37.8373Z" fill="url(#i21_p49)"/>
    <path d="M26.9984 1399.95C27.6784 1399.27 28.7735 1399.26 29.4678 1399.92C30.1697 1400.59 30.2005 1401.71 29.5362 1402.41L23.0654 1409.31L18.9901 1405.2C18.2458 1404.45 18.2472 1403.24 18.9941 1402.5C19.7448 1401.74 20.9639 1401.75 21.7119 1402.5L23.0654 1403.87L26.9984 1399.95Z" fill="#111827"/>
    <path d="M26.9984 1399.95C27.6784 1399.27 28.7735 1399.26 29.4678 1399.92C30.1697 1400.59 30.2005 1401.71 29.5362 1402.41L23.0654 1409.31L18.9901 1405.2C18.2458 1404.45 18.2472 1403.24 18.9941 1402.5C19.7448 1401.74 20.9639 1401.75 21.7119 1402.5L23.0654 1403.87L26.9984 1399.95Z" fill="url(#i21_p50)"/>
    <path d="M15.7203 1406.42H9.95044V1402.58H15.7203V1406.42Z" fill="#111827"/>
    <path d="M15.7203 1406.42H9.95044V1402.58H15.7203V1406.42Z" fill="url(#i21_p51)"/>
  </g>
</svg>