<svg xmlns="http://www.w3.org/2000/svg" width="44" height="44" viewBox="0 0 44 44.0" fill="none">
  <defs>
    <linearGradient id="i19_p35" x1="27.2028" y1="1236.35" x2="2.13602" y2="1253.84" gradientUnits="userSpaceOnUse">
<stop stop-color="#B399FF"/>
<stop offset="1" stop-color="#809BFF"/>
</linearGradient>
    <linearGradient id="i19_p36" x1="27.2027" y1="1236.35" x2="2.13634" y2="1253.84" gradientUnits="userSpaceOnUse">
<stop stop-color="#B399FF"/>
<stop offset="1" stop-color="#809BFF"/>
</linearGradient>
    <linearGradient id="i19_p37" x1="35.8542" y1="1253.12" x2="20.5355" y2="1263.81" gradientUnits="userSpaceOnUse">
<stop stop-color="#B399FF"/>
<stop offset="1" stop-color="#809BFF"/>
</linearGradient>
  </defs>
  <g transform="translate(0,-1222.3)">
    <path d="M5.97185 1265.32C4.96351 1265.32 4.10032 1264.96 3.38226 1264.25C2.66421 1263.53 2.30518 1262.67 2.30518 1261.66V1235.99C2.30518 1234.98 2.66421 1234.12 3.38226 1233.4C4.10032 1232.68 4.96351 1232.32 5.97185 1232.32H31.6385C32.6469 1232.32 33.5101 1232.68 34.2281 1233.4C34.9462 1234.12 35.3052 1234.98 35.3052 1235.99V1249.01C34.9996 1248.95 34.7017 1248.9 34.4115 1248.87C34.1212 1248.84 33.808 1248.82 33.4719 1248.82H31.6385V1235.99H5.97185V1261.66H16.9719C17.0941 1262.33 17.2545 1262.97 17.4531 1263.58C17.6517 1264.19 17.9191 1264.77 18.2552 1265.32H5.97185ZM5.97185 1259.82V1261.66V1235.99V1259.82ZM9.63852 1257.99H11.6552C11.8996 1256.49 12.4344 1255.11 13.2594 1253.84C14.0844 1252.57 15.1385 1251.51 16.4219 1250.66H9.63852V1257.99ZM9.63852 1246.99H16.9719V1239.66H9.63852V1246.99ZM20.6385 1246.99H27.9719V1239.66H20.6385V1246.99Z" fill="url(#i19_p35)"/>
    <path d="M16.9718 1257.99H9.63843V1250.66H16.9718V1257.99Z" fill="url(#i19_p36)"/>
    <path d="M30.7218 1250.66C33.5115 1250.66 35.8903 1251.64 37.8565 1253.61C39.8226 1255.57 40.8057 1257.95 40.8057 1260.74C40.8057 1263.53 39.8228 1265.91 37.8565 1267.87C35.8903 1269.84 33.5115 1270.82 30.7218 1270.82C27.9323 1270.82 25.5541 1269.84 23.588 1267.87C21.6217 1265.91 20.6388 1263.53 20.6388 1260.74C20.6388 1257.95 21.6218 1255.57 23.588 1253.61C25.5541 1251.64 27.9322 1250.66 30.7218 1250.66ZM28.6661 1254.32C28.3131 1254.32 27.9596 1254.37 27.6065 1254.46C27.2536 1254.56 26.9113 1254.69 26.5792 1254.85L29.5069 1257.78L27.7628 1259.53L24.835 1256.6C24.669 1256.93 24.5388 1257.27 24.4454 1257.62C24.352 1257.98 24.3048 1258.33 24.3048 1258.68C24.3048 1259.87 24.7255 1260.88 25.5665 1261.72C26.4075 1262.56 27.42 1262.98 28.6036 1262.98C28.8734 1262.98 29.1276 1262.96 29.3663 1262.92C29.6051 1262.88 29.839 1262.82 30.0675 1262.73L34.335 1266.97C34.4595 1267.09 34.6047 1267.16 34.7706 1267.16C34.9367 1267.16 35.0825 1267.09 35.2071 1266.97L36.9513 1265.23C37.0758 1265.1 37.1387 1264.96 37.1388 1264.79C37.1388 1264.62 37.0759 1264.48 36.9513 1264.35L32.7149 1260.09C32.7979 1259.86 32.8609 1259.63 32.9024 1259.4C32.944 1259.17 32.9649 1258.91 32.9649 1258.62C32.9649 1257.44 32.5442 1256.43 31.7032 1255.58C30.8622 1254.74 29.8497 1254.32 28.6661 1254.32Z" fill="url(#i19_p37)"/>
  </g>
</svg>