<svg xmlns="http://www.w3.org/2000/svg" width="44" height="44" viewBox="0 0 44 44.0" fill="none">
  <defs>
    <linearGradient id="i18_p30" x1="30.7988" y1="1160.65" x2="2.97401" y2="1180.1" gradientUnits="userSpaceOnUse">
<stop stop-color="#B399FF"/>
<stop offset="1" stop-color="#809BFF"/>
</linearGradient>
    <linearGradient id="i18_p31" x1="30.7988" y1="1160.65" x2="2.97401" y2="1180.1" gradientUnits="userSpaceOnUse">
<stop stop-color="#B399FF"/>
<stop offset="1" stop-color="#809BFF"/>
</linearGradient>
    <linearGradient id="i18_p32" x1="30.7988" y1="1160.65" x2="2.97411" y2="1180.1" gradientUnits="userSpaceOnUse">
<stop stop-color="#B399FF"/>
<stop offset="1" stop-color="#809BFF"/>
</linearGradient>
    <linearGradient id="i18_p33" x1="30.7988" y1="1160.65" x2="2.97411" y2="1180.1" gradientUnits="userSpaceOnUse">
<stop stop-color="#B399FF"/>
<stop offset="1" stop-color="#809BFF"/>
</linearGradient>
    <linearGradient id="i18_p34" x1="30.7988" y1="1160.65" x2="2.9746" y2="1180.1" gradientUnits="userSpaceOnUse">
<stop stop-color="#B399FF"/>
<stop offset="1" stop-color="#809BFF"/>
</linearGradient>
  </defs>
  <g transform="translate(0,-1146.7)">
    <path d="M3.13477 1158.94C3.13477 1157.42 4.36599 1156.19 5.88477 1156.19H10.4682C11.4807 1156.19 12.3015 1157.01 12.3015 1158.02C12.3015 1159.03 11.4807 1159.86 10.4682 1159.86H6.80144V1163.52C6.80144 1164.53 5.98062 1165.36 4.9681 1165.36C3.95558 1165.36 3.13477 1164.53 3.13477 1163.52V1158.94Z" fill="url(#i18_p30)"/>
    <path d="M3.13477 1190.05C3.13477 1191.57 4.36599 1192.8 5.88477 1192.8H10.4682C11.4807 1192.8 12.3015 1191.98 12.3015 1190.97C12.3015 1189.95 11.4807 1189.13 10.4682 1189.13H6.80144V1185.47C6.80144 1184.45 5.98062 1183.63 4.9681 1183.63C3.95558 1183.63 3.13477 1184.45 3.13477 1185.47V1190.05Z" fill="url(#i18_p31)"/>
    <path d="M37.0515 1156.19C38.5703 1156.19 39.8015 1157.42 39.8015 1158.94V1163.52C39.8015 1164.53 38.9807 1165.36 37.9682 1165.36C36.9556 1165.36 36.1348 1164.53 36.1348 1163.52V1159.86H32.4682C31.4556 1159.86 30.6348 1159.03 30.6348 1158.02C30.6348 1157.01 31.4556 1156.19 32.4682 1156.19H37.0515Z" fill="url(#i18_p32)"/>
    <path d="M37.0515 1192.8C38.5703 1192.8 39.8015 1191.57 39.8015 1190.05V1185.47C39.8015 1184.45 38.9807 1183.63 37.9682 1183.63C36.9556 1183.63 36.1348 1184.45 36.1348 1185.47V1189.13H32.4682C31.4556 1189.13 30.6348 1189.95 30.6348 1190.97C30.6348 1191.98 31.4556 1192.8 32.4682 1192.8H37.0515Z" fill="url(#i18_p33)"/>
    <path fill-rule="evenodd" clip-rule="evenodd" d="M17.6489 1160.78C17.112 1160.24 16.2414 1160.24 15.7044 1160.78C15.1674 1161.31 15.1674 1162.18 15.7044 1162.72C15.9804 1163 16.4562 1163.53 16.9199 1164.17C17.3916 1164.83 17.7926 1165.52 17.9913 1166.11C17.638 1166.59 17.3813 1167.15 17.2481 1167.76C13.348 1169.43 10.616 1173.31 10.616 1177.82C10.616 1181.96 12.9167 1185.56 16.3007 1187.41L17.4909 1188.07L18.4626 1187.12C19.1178 1186.48 19.7275 1185.8 20.2881 1185.08C20.6894 1185.2 21.1148 1185.26 21.5552 1185.26C21.9957 1185.26 22.4211 1185.2 22.8224 1185.08C23.383 1185.8 23.9927 1186.48 24.6479 1187.12L25.6196 1188.07L26.8099 1187.41C30.1938 1185.56 32.4946 1181.96 32.4946 1177.82C32.4946 1173.31 29.7625 1169.43 25.8623 1167.76C25.7147 1167.09 25.4144 1166.48 24.9998 1165.96C25.2122 1165.4 25.5846 1164.77 26.0162 1164.17C26.4799 1163.53 26.9558 1163 27.2317 1162.72C27.7687 1162.18 27.7687 1161.31 27.2317 1160.78C26.6948 1160.24 25.8242 1160.24 25.2872 1160.78C24.9084 1161.15 24.3367 1161.8 23.7856 1162.56C23.3929 1163.11 22.9802 1163.76 22.6589 1164.44C22.3062 1164.35 21.9364 1164.3 21.5552 1164.3C21.1181 1164.3 20.6958 1164.37 20.2971 1164.48C19.9731 1163.78 19.5516 1163.12 19.1508 1162.56C18.5996 1161.8 18.0277 1161.15 17.6489 1160.78ZM14.2827 1177.82C14.2827 1174.11 17.0548 1171.05 20.6386 1170.6V1176.51L19.6564 1178.92C18.9866 1180.56 18.0588 1182.08 16.9127 1183.42C15.3038 1182.08 14.2827 1180.07 14.2827 1177.82ZM23.4541 1178.92L22.4719 1176.51V1170.6C26.0557 1171.05 28.8278 1174.11 28.8278 1177.82C28.8278 1180.07 27.8067 1182.08 26.1978 1183.42C25.0517 1182.08 24.1239 1180.56 23.4541 1178.92Z" fill="url(#i18_p34)"/>
  </g>
</svg>