<svg xmlns="http://www.w3.org/2000/svg" width="44" height="44" viewBox="0 0 44 44.0" fill="none">
  <defs>
    <linearGradient id="i13_p21" x1="31.7342" y1="815.087" x2="5.25425" y2="837.343" gradientUnits="userSpaceOnUse">
<stop stop-color="#AE92FF"/>
<stop offset="1" stop-color="#7694FF"/>
</linearGradient>
  </defs>
  <g transform="translate(0,-801.1)">
    <path fill-rule="evenodd" clip-rule="evenodd" d="M34.8858 814.358H4.88672V811.036H36.2191C37.3235 811.036 38.219 811.928 38.219 813.029V825.153H34.8858V814.358ZM18.2227 832.625H23.2228V837.608H18.2227V832.625ZM3.22138 817.679H13.2216C14.1383 817.679 14.8883 818.426 14.8883 819.34V835.949C14.8883 836.863 14.1383 837.61 13.2216 837.61H3.22138C2.3047 837.61 1.55469 836.863 1.55469 835.949V819.34C1.55469 818.426 2.3047 817.679 3.22138 817.679ZM4.88808 832.628H11.5549V821.001H4.88808V832.628ZM39.5941 836.762C39.6297 836.502 39.6476 836.234 39.6476 835.949C39.6476 835.672 39.6297 835.395 39.5851 835.135L41.3968 833.769C41.5574 833.647 41.6019 833.414 41.5038 833.241L39.7904 830.369C39.6832 830.178 39.4602 830.118 39.2639 830.178L37.131 831.009C36.6847 830.68 36.2117 830.403 35.6852 830.196L35.364 827.998C35.3283 827.791 35.1498 827.644 34.9357 827.644H31.5086C31.2944 827.644 31.1249 827.791 31.0893 827.998L30.7679 830.196C30.2414 830.403 29.7596 830.689 29.3222 831.009L27.1894 830.178C26.993 830.109 26.7698 830.178 26.6628 830.369L24.9583 833.241C24.8511 833.423 24.8868 833.647 25.0653 833.769L26.877 835.135C26.8323 835.395 26.7967 835.68 26.7967 835.949C26.7967 836.217 26.8145 836.502 26.8592 836.762L25.0475 838.129C24.8868 838.25 24.8423 838.483 24.9405 838.656L26.6538 841.528C26.761 841.719 26.984 841.779 27.1804 841.719L29.3132 840.888C29.7596 841.217 30.2326 841.494 30.7591 841.701L31.0803 843.899C31.1249 844.106 31.2944 844.253 31.5086 844.253H34.9357C35.1498 844.253 35.3283 844.106 35.355 843.899L35.6763 841.701C36.2028 841.494 36.6847 841.217 37.122 840.888L39.2549 841.719C39.4512 841.788 39.6744 841.719 39.7814 841.528L41.4949 838.656C41.6019 838.466 41.5574 838.25 41.3878 838.129L39.5941 836.762ZM33.2221 839.063C31.4551 839.063 30.0094 837.661 30.0094 835.949C30.0094 834.236 31.4551 832.834 33.2221 832.834C34.9892 832.834 36.4348 834.236 36.4348 835.949C36.4348 837.661 34.9892 839.063 33.2221 839.063Z" fill="url(#i13_p21)"/>
  </g>
</svg>