<svg xmlns="http://www.w3.org/2000/svg" width="44" height="44" viewBox="0 0 44 44.0" fill="none">
  <defs>
    <linearGradient id="i15_p23" x1="31.8152" y1="942.203" x2="4.28088" y2="962.837" gradientUnits="userSpaceOnUse">
<stop stop-color="#B399FF"/>
<stop offset="1" stop-color="#809BFF"/>
</linearGradient>
  </defs>
  <g transform="translate(0,-928.2)">
    <path fill-rule="evenodd" clip-rule="evenodd" d="M3.0979 940.935C3.0979 939.248 4.57977 937.88 6.40776 937.88H36.1966C38.0246 937.88 39.5064 939.248 39.5064 940.935V951.629H36.1966V940.935H6.40776V961.304H21.3022V964.359H6.40776C4.57977 964.359 3.0979 962.991 3.0979 961.304V940.935ZM13.8862 953.52L14.5416 955.829H16.9247L14.1096 946.233H10.952L8.13697 955.829H10.4009L11.0414 953.52H13.8862ZM12.4117 948.226H12.5308L13.5437 951.856H11.3989L12.4117 948.226ZM18.1253 946.233V955.829H20.3743V952.337H22.1468C22.6532 952.337 23.105 952.269 23.5022 952.131C23.8993 951.984 24.232 951.778 24.5001 951.512C24.7781 951.247 24.9866 950.926 25.1256 950.55C25.2647 950.174 25.3342 949.753 25.3342 949.285C25.3342 948.818 25.2647 948.396 25.1256 948.02C24.9866 947.644 24.7781 947.324 24.5001 947.058C24.232 946.792 23.8993 946.59 23.5022 946.453C23.105 946.306 22.6532 946.233 22.1468 946.233H18.1253ZM21.5808 950.674H20.3743V947.896H21.5808C22.107 947.896 22.4695 947.988 22.6681 948.171C22.8766 948.355 22.9808 948.657 22.9808 949.079V949.491C22.9808 949.913 22.8766 950.215 22.6681 950.399C22.4695 950.582 22.107 950.674 21.5808 950.674ZM27.0415 955.829V954.303H29.2757V947.759H27.0415V946.233H33.744V947.759H31.5098V954.303H33.744V955.829H27.0415ZM39.183 966.172C39.2189 965.924 39.2369 965.668 39.2369 965.395C39.2369 965.131 39.2189 964.866 39.1739 964.618L41.0006 963.312C41.1626 963.197 41.2075 962.973 41.1085 962.808L39.3809 960.064C39.2729 959.882 39.048 959.824 38.8501 959.882L36.6995 960.675C36.2495 960.361 35.7726 960.097 35.2417 959.898L34.9179 957.799C34.8819 957.6 34.7019 957.46 34.486 957.46H31.0305C30.8146 957.46 30.6437 957.6 30.6077 957.799L30.2837 959.898C29.7528 960.097 29.267 960.369 28.826 960.675L26.6755 959.882C26.4775 959.816 26.2525 959.882 26.1446 960.064L24.426 962.808C24.3179 962.982 24.3539 963.197 24.5338 963.312L26.3606 964.618C26.3155 964.866 26.2796 965.139 26.2796 965.395C26.2796 965.652 26.2975 965.924 26.3426 966.172L24.5159 967.478C24.3539 967.594 24.309 967.817 24.408 967.983L26.1355 970.727C26.2436 970.909 26.4684 970.967 26.6664 970.909L28.8169 970.115C29.267 970.43 29.7439 970.694 30.2748 970.892L30.5986 972.992C30.6437 973.191 30.8146 973.331 31.0305 973.331H34.486C34.7019 973.331 34.8819 973.191 34.9088 972.992L35.2328 970.892C35.7637 970.694 36.2495 970.43 36.6904 970.115L38.841 970.909C39.039 970.975 39.264 970.909 39.3719 970.727L41.0996 967.983C41.2075 967.801 41.1626 967.594 40.9915 967.478L39.183 966.172ZM32.7582 968.371C30.9766 968.371 29.5189 967.032 29.5189 965.395C29.5189 963.759 30.9766 962.419 32.7582 962.419C34.5399 962.419 35.9976 963.759 35.9976 965.395C35.9976 967.032 34.5399 968.371 32.7582 968.371Z" fill="url(#i15_p23)"/>
  </g>
</svg>