<svg xmlns="http://www.w3.org/2000/svg" width="44" height="44" viewBox="0 0 44 44.0" fill="none">
  <defs>
    <linearGradient id="i9_p14" x1="19.3419" y1="539.661" x2="1.00987" y2="547.48" gradientUnits="userSpaceOnUse">
      <stop stop-color="#B399FF"/>
      <stop offset="1" stop-color="#809BFF"/>
    </linearGradient>
    <linearGradient id="i9_p15" x1="28.1438" y1="546.141" x2="10.4654" y2="554.699" gradientUnits="userSpaceOnUse">
      <stop stop-color="#B399FF"/>
      <stop offset="1" stop-color="#809BFF"/>
    </linearGradient>
    <linearGradient id="i9_p16" x1="32.9003" y1="558.358" x2="19.7986" y2="567.118" gradientUnits="userSpaceOnUse">
      <stop stop-color="#B399FF"/>
      <stop offset="1" stop-color="#809BFF"/>
    </linearGradient>

    <!-- Mask to create transparent gap between front and back phone -->
    <mask id="hide-front">
      <rect x="-20" y="500" width="100" height="100" fill="white" />
      <path d="M30.0993 542.809H16.2638C14.7878 542.809 13.5913 544.006 13.5913 545.482V568.036C13.5913 569.511 14.7878 570.708 16.2638 570.708H30.0993C31.5753 570.708 32.7718 569.511 32.7718 568.036V545.482C32.7718 544.006 31.5753 542.809 30.0993 542.809Z" fill="black"/>
    </mask>

    <!-- Mask to punch a transparent hole through the phones for the gear base and outline -->
    <mask id="punch-gear">
      <rect x="-20" y="500" width="100" height="100" fill="white" />
      <!-- Punches the gear base out -->
      <path fill-rule="evenodd" clip-rule="evenodd" d="M38.0412 561.544L38.035 561.533L38.0286 561.522L36.3086 558.502C35.8743 557.714 34.9977 557.522 34.3383 557.735L34.2949 557.749L34.2526 557.766L32.723 558.39C32.5629 558.287 32.3978 558.188 32.227 558.096L31.994 556.427L31.992 556.413L31.9896 556.398C31.8603 555.61 31.1883 555.002 30.3548 555.002H26.904C26.0395 555.002 25.4022 555.642 25.2781 556.398L25.2758 556.413L25.2737 556.427L25.0406 558.097C24.8698 558.19 24.705 558.288 24.5461 558.39L23.0151 557.766L22.9961 557.758L22.9769 557.751C22.2427 557.48 21.3719 557.752 20.9584 558.503L19.2468 561.524L19.2451 561.527C18.8815 562.173 18.9475 563.109 19.6769 563.652L20.9502 564.659C20.9434 564.765 20.9395 564.873 20.9395 564.981C20.9395 565.082 20.9415 565.186 20.9458 565.293L19.6419 566.324C19.6418 566.324 19.642 566.324 19.6419 566.324C18.9903 566.839 18.8516 567.743 19.2176 568.418L19.2238 568.43L19.2302 568.441L20.9502 571.461C21.3844 572.249 22.261 572.441 22.9205 572.228L22.9639 572.214L23.0061 572.197L24.5357 571.573C24.6958 571.676 24.861 571.774 25.0318 571.867L25.2648 573.536L25.2701 573.574L25.2779 573.612C25.4234 574.321 26.0336 574.961 26.904 574.961H30.3548C31.1755 574.961 31.8773 574.359 31.9859 573.529L32.2178 571.868C32.3889 571.776 32.5552 571.678 32.7165 571.574L34.2437 572.197L34.2626 572.205L34.2818 572.212C35.0156 572.483 35.8857 572.211 36.2995 571.461L38.0196 568.441L38.0271 568.428L38.0342 568.415C38.3979 567.738 38.2819 566.843 37.6023 566.319L36.3136 565.291C36.3173 565.189 36.3192 565.086 36.3192 564.981C36.3192 564.879 36.3173 564.775 36.3131 564.669L37.6168 563.639C38.2687 563.124 38.4072 562.22 38.0412 561.544ZM28.6294 567.047C27.5411 567.047 26.6138 566.132 26.6138 564.981C26.6138 563.831 27.5411 562.916 28.6294 562.916C29.7176 562.916 30.6449 563.831 30.6449 564.981C30.6449 566.132 29.7176 567.047 28.6294 567.047Z" fill="black"/>
      <!-- Punches the gear border out -->
      <path d="M19.6419 566.324L20.9458 565.293C20.9415 565.186 20.9395 565.082 20.9395 564.981C20.9395 564.873 20.9434 564.765 20.9502 564.659L19.6769 563.652C18.9475 563.109 18.8815 562.173 19.2451 561.527L19.2468 561.524L20.9584 558.503C21.3719 557.752 22.2427 557.48 22.9769 557.751L22.9961 557.758L23.0151 557.766L24.5461 558.39C24.705 558.288 24.8698 558.19 25.0406 558.097L25.2737 556.427L25.2758 556.413L25.2781 556.398C25.4022 555.642 26.0395 555.002 26.904 555.002H30.3548C31.1883 555.002 31.8603 555.61 31.9896 556.398L31.992 556.413L31.994 556.427L32.227 558.096C32.3978 558.188 32.5629 558.287 32.723 558.39L34.2526 557.766L34.2949 557.749L34.3383 557.735C34.9977 557.522 35.8743 557.714 36.3086 558.502L38.0286 561.522L38.035 561.533L38.0412 561.544C38.4072 562.22 38.2687 563.124 37.6168 563.639L36.3131 564.669C36.3173 564.775 36.3192 564.879 36.3192 564.981C36.3192 565.086 36.3173 565.189 36.3136 565.291L37.6023 566.319C38.2819 566.843 38.3979 567.738 38.0342 568.415L38.0271 568.428L38.0196 568.441L36.2995 571.461C35.8857 572.211 35.0156 572.483 34.2818 572.212L34.2626 572.205L34.2437 572.197L32.7165 571.574C32.5552 571.678 32.3889 571.776 32.2178 571.868L31.9859 573.529C31.8773 574.359 31.1755 574.961 30.3548 574.961H26.904C26.0336 574.961 25.4234 574.321 25.2779 573.612L25.2701 573.574L25.2648 573.536L25.0318 571.867C24.861 571.774 24.6958 571.676 24.5357 571.573L23.0061 572.197L22.9639 572.214L22.9205 572.228C22.261 572.441 21.3844 572.249 20.9502 571.461L19.2302 568.441L19.2238 568.43L19.2176 568.418C18.8516 567.743 18.9903 566.839 19.6419 566.324ZM19.6419 566.324C19.6418 566.324 19.642 566.324 19.6419 566.324ZM28.6294 567.047C27.5411 567.047 26.6138 566.132 26.6138 564.981C26.6138 563.831 27.5411 562.916 28.6294 562.916C29.7176 562.916 30.6449 563.831 30.6449 564.981C30.6449 566.132 29.7176 567.047 28.6294 567.047Z" stroke="black" stroke-width="2.43912"/>
    </mask>
  </defs>

  <g transform="translate(0,-525.7)">
    
    <!-- Phones grouped together so the gear mask can punch a hole through both of them -->
    <g mask="url(#punch-gear)">
      <!-- Device 1 (Back Phone) - Body & Screen combined for transparent screen cutout -->
      <path fill-rule="evenodd" clip-rule="evenodd" d="M21.0512 535.834H7.87061C6.21376 535.834 4.87061 537.177 4.87061 538.834V564.22C4.87061 565.877 6.21376 567.22 7.87061 567.22H21.0512C22.7081 567.22 24.0512 565.877 24.0512 564.22V538.834C24.0512 537.177 22.7081 535.834 21.0512 535.834Z M20.3043 539.151H8.62427V561.612H20.3043V539.151Z" fill="url(#i9_p14)" mask="url(#hide-front)"/>
      
      <!-- Device 2 (Front Phone) - Body & Screen combined for transparent screen cutout -->
      <path fill-rule="evenodd" clip-rule="evenodd" d="M29.8867 542.744H16.5698C14.9129 542.744 13.5698 544.087 13.5698 545.744V567.596C13.5698 569.253 14.9129 570.596 16.5698 570.596H29.8867C31.5436 570.596 32.8868 569.253 32.8868 567.596V545.744C32.8868 544.087 31.5436 542.744 29.8867 542.744Z M29.2889 547.686H17.1597V565.206H29.2889V547.686Z" fill="url(#i9_p15)"/>
    </g>
    
    <!-- Gear gradient details drawn on top of the transparent hole -->
    <path fill-rule="evenodd" clip-rule="evenodd" d="M35.718 566.376C35.3008 566.043 35.0997 565.515 35.0997 564.981C35.0997 564.45 35.2955 563.919 35.7123 563.59L36.8611 562.682C37.0228 562.554 37.0678 562.308 36.9689 562.125L35.2435 559.096C35.1357 558.895 34.911 558.831 34.7133 558.895L33.352 559.45C32.8652 559.649 32.3182 559.562 31.8663 559.293C31.4162 559.026 31.0653 558.595 30.9929 558.076L30.7862 556.596C30.7503 556.377 30.5705 556.221 30.3549 556.221H26.9041C26.6884 556.221 26.5176 556.377 26.4817 556.596L26.2753 558.075C26.2027 558.594 25.8474 559.029 25.397 559.297C24.9461 559.567 24.4036 559.649 23.9174 559.451L22.5546 558.895C22.3569 558.822 22.1322 558.895 22.0244 559.096L20.308 562.125C20.2002 562.317 20.2361 562.554 20.4158 562.682L21.5634 563.589C21.981 563.919 22.1592 564.449 22.1592 564.981C22.1592 565.513 21.9635 566.044 21.5466 566.373L20.3979 567.281C20.2361 567.409 20.1912 567.655 20.29 567.837L22.0154 570.867C22.1233 571.068 22.3479 571.132 22.5456 571.068L23.9069 570.512C24.3938 570.314 24.9407 570.401 25.3927 570.669C25.8428 570.937 26.1937 571.368 26.2661 571.887L26.4727 573.367C26.5176 573.586 26.6884 573.741 26.9041 573.741H30.3549C30.5705 573.741 30.7503 573.586 30.7772 573.367L30.9845 571.882C31.0565 571.366 31.4081 570.937 31.8565 570.672C32.3112 570.403 32.8587 570.315 33.3476 570.514L34.7043 571.068C34.902 571.141 35.1268 571.068 35.2345 570.867L36.9599 567.837C37.0678 567.637 37.0228 567.409 36.8521 567.281L35.718 566.376ZM28.6295 568.266C26.8501 568.266 25.3943 566.788 25.3943 564.981C25.3943 563.175 26.8501 561.696 28.6295 561.696C30.4088 561.696 31.8646 563.175 31.8646 564.981C31.8646 566.788 30.4088 568.266 28.6295 568.266Z" fill="url(#i9_p16)"/>
  </g>
</svg>
