<svg xmlns="http://www.w3.org/2000/svg" width="44" height="44" viewBox="0 0 44 44.0" fill="none">
  <defs>
    <linearGradient id="i6_p11" x1="30.2388" y1="339.872" x2="3.24696" y2="357.534" gradientUnits="userSpaceOnUse">
<stop stop-color="#B399FF"/>
<stop offset="1" stop-color="#809BFF"/>
</linearGradient>
  </defs>
  <g transform="translate(0,-325.9)">
    <path d="M38.1424 344.528C37.881 343.525 36.8576 342.925 35.8437 343.143C31.328 344.111 26.2729 344.533 21.555 344.533C16.8371 344.533 11.782 344.111 7.26632 343.143C6.25242 342.925 5.22901 343.525 4.96768 344.528C4.70544 345.535 5.30994 346.567 6.32649 346.789C9.38572 347.458 12.7182 347.916 15.8675 348.173V369.937C15.8675 370.984 16.7163 371.833 17.7633 371.833C18.8104 371.833 19.6592 370.984 19.6592 369.937V362.809C19.6592 361.762 20.508 360.913 21.555 360.913C22.602 360.913 23.4508 361.762 23.4508 362.809V369.937C23.4508 370.984 24.2996 371.833 25.3467 371.833C26.3937 371.833 27.2425 370.984 27.2425 369.937V348.173C30.3918 347.916 33.7243 347.458 36.7836 346.789C37.8001 346.567 38.4046 345.535 38.1424 344.528ZM21.555 342.713C23.6404 342.713 25.3467 341.075 25.3467 339.073C25.3467 337.071 23.6404 335.433 21.555 335.433C19.4696 335.433 17.7633 337.071 17.7633 339.073C17.7633 341.075 19.4696 342.713 21.555 342.713Z" fill="url(#i6_p11)"/>
  </g>
</svg>