<svg xmlns="http://www.w3.org/2000/svg" width="44" height="44" viewBox="0 0 44 44.0" fill="none">
  <defs>
    <linearGradient id="i3_p7" x1="30.031" y1="137.656" x2="6.53521" y2="155.877" gradientUnits="userSpaceOnUse">
<stop stop-color="#B399FF"/>
<stop offset="1" stop-color="#809BFF"/>
</linearGradient>
    <linearGradient id="i3_p8" x1="30.0314" y1="137.656" x2="6.53544" y2="155.877" gradientUnits="userSpaceOnUse">
<stop stop-color="#B399FF"/>
<stop offset="1" stop-color="#809BFF"/>
</linearGradient>
  </defs>
  <g transform="translate(0,-123.7)">
    <path d="M8.2315 150.469C8.2315 143.233 14.1769 137.331 21.5549 137.331C28.9328 137.331 34.8783 143.233 34.8783 150.469C34.8783 154.798 32.9284 158.596 29.7223 160.975C28.9837 161.523 28.8292 162.566 29.3773 163.305C29.9254 164.044 30.9685 164.198 31.7072 163.65C35.7807 160.627 38.2092 155.826 38.2092 150.469C38.2092 141.354 30.7332 134 21.5549 134C12.3765 134 4.90063 141.354 4.90063 150.469C4.90063 155.826 7.32915 160.627 11.4025 163.65C12.1412 164.198 13.1843 164.044 13.7324 163.305C14.2805 162.566 14.126 161.523 13.3874 160.975C10.1813 158.596 8.2315 154.798 8.2315 150.469Z" fill="url(#i3_p7)"/>
    <path fill-rule="evenodd" clip-rule="evenodd" d="M30.98 144.666C31.376 144.149 31.3587 143.418 30.9324 142.922C30.5184 142.433 29.8162 142.279 29.2322 142.581C28.7794 142.811 26.409 144.193 24.0788 145.586C22.9003 146.291 21.7174 147.007 20.7729 147.594C19.8636 148.159 19.1004 148.65 18.8225 148.884C18.1248 149.469 17.6984 150.292 17.6191 151.198C17.5399 152.104 17.8169 152.988 18.4024 153.685C19.0092 154.408 19.8486 154.811 20.7177 154.887L20.7323 154.888C21.5761 154.947 22.4737 154.698 23.1959 154.093C23.3595 153.956 23.5922 153.707 23.8404 153.429C24.1034 153.135 24.4267 152.759 24.787 152.331C25.5083 151.476 26.3906 150.401 27.26 149.329C28.9909 147.194 30.6908 145.049 30.98 144.666ZM23.7419 149.288C23.9697 149.018 24.204 148.739 24.4405 148.455C24.1417 148.644 23.8476 148.832 23.5629 149.017C21.9987 150.03 20.7944 150.871 20.612 151.024L20.6054 151.029C20.4835 151.129 20.4096 151.268 20.3951 151.435C20.3812 151.594 20.4299 151.75 20.5373 151.877C20.7517 152.132 21.1404 152.166 21.3948 151.953L21.3998 151.948C21.4045 151.944 21.4238 151.926 21.4622 151.888C21.5061 151.843 21.5631 151.784 21.6331 151.709C21.7727 151.559 21.9537 151.359 22.1678 151.117C22.5953 150.633 23.1449 149.995 23.7419 149.288Z" fill="url(#i3_p8)"/>
  </g>
</svg>