<svg xmlns="http://www.w3.org/2000/svg" width="44" height="44" viewBox="0 0 44 44.0" fill="none">
  <defs>
    <linearGradient id="i2_p4" x1="30.7162" y1="69.3902" x2="3.37063" y2="88.4763" gradientUnits="userSpaceOnUse">
<stop stop-color="#B399FF"/>
<stop offset="1" stop-color="#809BFF"/>
</linearGradient>
    <linearGradient id="i2_p5" x1="30.7163" y1="69.3902" x2="3.37082" y2="88.4763" gradientUnits="userSpaceOnUse">
<stop stop-color="#B399FF"/>
<stop offset="1" stop-color="#809BFF"/>
</linearGradient>
    <linearGradient id="i2_p6" x1="30.7164" y1="69.3902" x2="3.3708" y2="88.4763" gradientUnits="userSpaceOnUse">
<stop stop-color="#B399FF"/>
<stop offset="1" stop-color="#809BFF"/>
</linearGradient>
  </defs>
  <g transform="translate(0,-55.4)">
    <path d="M19.9188 68.2727C12.6697 68.2727 6.82791 74.0714 6.82791 81.1818C6.82791 85.4347 8.74372 89.1665 11.894 91.5041C12.6197 92.0426 12.7715 93.0675 12.2329 93.7933C11.6944 94.519 10.6695 94.671 9.94372 94.132C5.94131 91.1623 3.55518 86.4452 3.55518 81.1818C3.55518 72.2257 10.9007 65 19.9188 65C28.937 65 36.2825 72.2257 36.2825 81.1818C36.2825 82.0856 35.5498 82.8182 34.6461 82.8182C33.7424 82.8182 33.0097 82.0856 33.0097 81.1818C33.0097 74.0714 27.168 68.2727 19.9188 68.2727Z" fill="url(#i2_p4)"/>
    <path fill-rule="evenodd" clip-rule="evenodd" d="M29.1324 73.7658C29.5512 74.2535 29.5683 74.9716 29.1792 75.4798C28.895 75.8559 27.2248 77.9639 25.5241 80.061C24.6698 81.1144 23.8029 82.1712 23.0943 83.0114C22.7402 83.4311 22.4226 83.8005 22.1642 84.0898C21.9203 84.3629 21.6917 84.6076 21.531 84.7423C20.8213 85.3368 19.9394 85.5816 19.1103 85.5237L19.096 85.5227C18.2421 85.448 17.4173 85.0513 16.8211 84.3417C16.2458 83.6568 15.9736 82.7878 16.0515 81.8976C16.1294 81.0073 16.5483 80.1988 17.2339 79.6242C17.5069 79.3945 18.2568 78.9121 19.1503 78.3566C20.0782 77.7796 21.2405 77.0759 22.3985 76.3837C24.688 75.0151 27.017 73.6576 27.4619 73.4316C28.0357 73.1349 28.7256 73.2859 29.1324 73.7658ZM22.7538 79.2022C22.5214 79.4814 22.2913 79.7559 22.0675 80.021C21.4808 80.716 20.9409 81.343 20.5207 81.8181C20.3104 82.0559 20.1326 82.2528 19.9954 82.3999C19.9266 82.4736 19.8707 82.5319 19.8275 82.5754C19.7897 82.6133 19.7708 82.6307 19.7662 82.635L19.7613 82.6391C19.5113 82.8487 19.1294 82.8157 18.9188 82.5653C18.8132 82.4396 18.7654 82.2865 18.779 82.1304C18.7933 81.9669 18.8659 81.83 18.9857 81.7317L18.9922 81.7263C19.1714 81.5761 20.3547 80.7505 21.8915 79.7547C22.1713 79.5734 22.4602 79.3882 22.7538 79.2022Z" fill="url(#i2_p5)"/>
    <path fill-rule="evenodd" clip-rule="evenodd" d="M37.6821 92.8182C37.6821 93.0994 37.6646 93.3636 37.6295 93.6193L39.3907 94.966C39.5572 95.085 39.601 95.298 39.4958 95.486L37.8135 98.315C37.7084 98.503 37.4894 98.571 37.2966 98.503L35.2025 97.685C34.7732 98.009 34.3 98.281 33.7831 98.486L33.4677 100.651C33.4414 100.855 33.2661 101 33.0559 101H29.6913C29.481 101 29.3145 100.855 29.2707 100.651L28.9553 98.486C28.4384 98.281 27.974 98.009 27.5359 97.685L25.4418 98.503C25.249 98.563 25.03 98.503 24.9249 98.315L23.2426 95.486C23.1462 95.315 23.19 95.085 23.3477 94.966L25.1264 93.6193C25.0826 93.3636 25.065 93.0824 25.065 92.8182C25.065 92.554 25.1001 92.2727 25.1439 92.017L23.3652 90.6705C23.19 90.5511 23.155 90.3295 23.2601 90.1506L24.9336 87.321C25.0388 87.1335 25.2578 87.0653 25.4506 87.1335L27.5447 87.9517C27.974 87.6364 28.4471 87.3551 28.9641 87.1506L29.2795 84.9858C29.3145 84.7813 29.481 84.6364 29.6913 84.6364H33.0559C33.2661 84.6364 33.4414 84.7813 33.4764 84.9858L33.7919 87.1506C34.3088 87.3551 34.7732 87.6278 35.2113 87.9517L37.3054 87.1335C37.4981 87.0739 37.7172 87.1335 37.8223 87.321L39.5046 90.1506C39.601 90.321 39.5572 90.5511 39.3994 90.6705L37.6208 92.017C37.6646 92.2727 37.6821 92.5455 37.6821 92.8182ZM28.2193 92.8182C28.2193 94.506 29.6387 95.886 31.3736 95.886C33.1084 95.886 34.5278 94.506 34.5278 92.8182C34.5278 91.1307 33.1084 89.75 31.3736 89.75C29.6387 89.75 28.2193 91.1307 28.2193 92.8182Z" fill="url(#i2_p6)"/>
  </g>
</svg>