<svg xmlns="http://www.w3.org/2000/svg" width="44" height="44" viewBox="0 0 44 44.0" fill="none">
  <defs>
    <linearGradient id="i17_p27" x1="27.5628" y1="1084.56" x2="3.61023" y2="1101.28" gradientUnits="userSpaceOnUse">
<stop stop-color="#B399FF"/>
<stop offset="1" stop-color="#809BFF"/>
</linearGradient>
    <linearGradient id="i17_p28" x1="27.5626" y1="1084.56" x2="3.60972" y2="1101.28" gradientUnits="userSpaceOnUse">
<stop stop-color="#B399FF"/>
<stop offset="1" stop-color="#809BFF"/>
</linearGradient>
    <linearGradient id="i17_p29" x1="27.563" y1="1084.56" x2="3.61003" y2="1101.28" gradientUnits="userSpaceOnUse">
<stop stop-color="#B399FF"/>
<stop offset="1" stop-color="#809BFF"/>
</linearGradient>
  </defs>
  <g transform="translate(0,-1070.6)">
    <path d="M19.4441 1111.65V1104.37C16.9337 1104.41 14.1903 1104.21 11.3405 1103.63L11.3271 1103.61V1107.95C11.3271 1108.82 11.4204 1109.52 11.607 1110.05C11.7936 1110.58 12.0579 1111 12.4 1111.3C12.7732 1111.6 13.2241 1111.8 13.7528 1111.9C14.3126 1112.03 14.9502 1112.1 15.6655 1112.1C16.3808 1112.1 17.0961 1112.05 17.8114 1111.95C18.5578 1111.85 19.102 1111.75 19.4441 1111.65Z" fill="url(#i17_p27)"/>
    <path d="M19.444 1102.05H19.7896C22.9813 1101.99 26.4623 1101.51 29.4291 1100.16L29.427 1100.15C30.7954 1099.35 31.9772 1098.22 32.9724 1096.76C33.9676 1095.29 34.4652 1093.52 34.4652 1091.46C34.4652 1088.16 33.3767 1085.55 31.1997 1083.61C29.0228 1081.68 25.7884 1080.71 21.4966 1080.71C19.9105 1080.71 18.4177 1080.81 17.0182 1081.01C15.6187 1081.18 14.3903 1081.46 13.3329 1081.86C12.7109 1082.1 12.2133 1082.41 11.8401 1082.81C11.498 1083.18 11.3269 1083.71 11.3269 1084.41V1092.79C12.7556 1093.01 18.1794 1093.48 19.3973 1093.43V1087.91C19.7394 1087.84 20.0504 1087.79 20.3303 1087.76C20.6102 1087.73 20.9834 1087.71 21.4499 1087.71C23.0982 1087.71 24.2956 1088.04 25.042 1088.71C25.8195 1089.34 26.2082 1090.29 26.2082 1091.56C26.2082 1092.82 25.8661 1093.79 25.1819 1094.46C24.4977 1095.09 23.5647 1095.41 22.3829 1095.41H19.3973V1095.38C19.3893 1095.39 19.3818 1095.41 19.375 1095.42C14.8492 1095.2 12.1011 1095.01 11.3251 1094.9L9.17502 1094.68C8.97872 1094.67 8.83522 1094.49 8.85452 1094.29L8.97092 1093.11C9.00462 1092.77 8.58222 1092.58 8.351 1092.83L3.86387 1097.78C3.74109 1097.91 3.74028 1098.12 3.86199 1098.25L7.46652 1102.3C7.67371 1102.53 8.05789 1102.4 8.08831 1102.09L8.17191 1101.24C8.19218 1101.04 8.38324 1100.89 8.58752 1100.93L11.3269 1101.4V1101.41L11.3403 1101.4C13.0164 1101.68 16.0473 1102.1 19.444 1102.06V1102.05Z" fill="url(#i17_p28)"/>
    <path d="M25.8355 1108.8L23.1322 1104.15C26.6439 1103.76 29.4199 1102.98 30.97 1102.35C31.5644 1103.18 32.1542 1103.98 32.7396 1104.75C33.8281 1106.18 34.6834 1107.48 35.3054 1108.65C34.9944 1109.82 34.419 1110.72 33.5793 1111.35C32.7708 1111.95 31.8533 1112.25 30.827 1112.25C30.1428 1112.25 29.5519 1112.16 29.0543 1112C28.5567 1111.83 28.1213 1111.6 27.7481 1111.3C27.3749 1111 27.0328 1110.63 26.7218 1110.2C26.4108 1109.77 26.1154 1109.3 25.8355 1108.8Z" fill="url(#i17_p29)"/>
  </g>
</svg>