<svg xmlns="http://www.w3.org/2000/svg" width="44" height="44" viewBox="0 0 44 44.0" fill="none">
  <defs>
    <linearGradient id="i5_p10" x1="30.4505" y1="269.945" x2="2.9293" y2="288.093" gradientUnits="userSpaceOnUse">
<stop stop-color="#B399FF"/>
<stop offset="1" stop-color="#809BFF"/>
</linearGradient>
  </defs>
  <g transform="translate(0,-255.9)">
    <path fill-rule="evenodd" clip-rule="evenodd" d="M18.8504 272.16C20.7004 272.16 22.214 270.647 22.214 268.797C22.214 266.947 20.7004 265.433 18.8504 265.433C17.0004 265.433 15.4868 266.947 15.4868 268.797C15.4868 270.647 17.0004 272.16 18.8504 272.16ZM33.5751 273.871C33.3401 272.931 32.3805 272.369 31.4341 272.578C27.4521 273.458 23.0049 273.842 18.852 273.842C14.6992 273.842 10.2518 273.458 6.26977 272.578C5.32347 272.369 4.36386 272.931 4.12883 273.871C3.89946 274.789 4.44693 275.723 5.36907 275.933C7.58195 276.436 9.95482 276.809 12.2688 277.058C13.1374 277.151 13.8065 277.877 13.8065 278.751V297.387C13.8065 298.316 14.5595 299.069 15.4883 299.069C16.4172 299.069 17.1701 298.316 17.1701 297.387V290.66C17.1701 289.731 17.9231 288.978 18.852 288.978H21.5551L23.8974 285.11V278.751C23.8974 277.877 24.5666 277.151 25.4351 277.058C27.7491 276.809 30.122 276.436 32.3349 275.933C33.2571 275.723 33.8045 274.789 33.5751 273.871ZM37.0541 294.847C37.0901 294.584 37.1081 294.313 37.1081 294.024C37.1081 293.744 37.0901 293.463 37.045 293.2L38.8731 291.816C39.0353 291.694 39.0802 291.457 38.9811 291.282L37.2522 288.374C37.1441 288.181 36.919 288.12 36.7209 288.181L34.5687 289.022C34.1183 288.689 33.641 288.409 33.1097 288.199L32.7856 285.974C32.7496 285.764 32.5695 285.615 32.3534 285.615H28.8953C28.6791 285.615 28.5081 285.764 28.4721 285.974L28.1479 288.199C27.6166 288.409 27.1304 288.698 26.6891 289.022L24.5368 288.181C24.3387 288.111 24.1135 288.181 24.0055 288.374L22.2855 291.282C22.1774 291.466 22.2134 291.694 22.3935 291.816L24.2217 293.2C24.1766 293.463 24.1406 293.752 24.1406 294.024C24.1406 294.295 24.1586 294.584 24.2037 294.847L22.3755 296.231C22.2134 296.354 22.1685 296.59 22.2675 296.766L23.9965 299.674C24.1046 299.867 24.3296 299.928 24.5277 299.867L26.68 299.026C27.1304 299.358 27.6077 299.639 28.1389 299.849L28.463 302.074C28.5081 302.284 28.6791 302.433 28.8953 302.433H32.3534C32.5695 302.433 32.7496 302.284 32.7766 302.074L33.1008 299.849C33.6321 299.639 34.1183 299.358 34.5596 299.026L36.7118 299.867C36.91 299.936 37.1352 299.867 37.2431 299.674L38.9722 296.766C39.0802 296.573 39.0353 296.354 38.8641 296.231L37.0541 294.847ZM30.6243 297.177C28.8413 297.177 27.3825 295.758 27.3825 294.024C27.3825 292.29 28.8413 290.87 30.6243 290.87C32.4074 290.87 33.8662 292.29 33.8662 294.024C33.8662 295.758 32.4074 297.177 30.6243 297.177Z" fill="url(#i5_p10)"/>
  </g>
</svg>