<svg xmlns="http://www.w3.org/2000/svg" width="44" height="44" viewBox="0 0 44 44.0" fill="none">
  <defs>
    <linearGradient id="i7_p12" x1="29.1893" y1="408.492" x2="6.40141" y2="424.397" gradientUnits="userSpaceOnUse">
<stop stop-color="#B399FF"/>
<stop offset="1" stop-color="#809BFF"/>
</linearGradient>
  </defs>
  <g transform="translate(0,-394.5)">
    <path d="M6.55518 412.333H14.0552V404.833H6.55518V412.333ZM17.8052 434.833H25.3052V427.333H17.8052V434.833ZM6.55518 434.833H14.0552V427.333H6.55518V434.833ZM6.55518 423.583H14.0552V416.083H6.55518V423.583ZM17.8052 423.583H25.3052V416.083H17.8052V423.583ZM29.0552 404.833V412.333H36.5552V404.833H29.0552ZM17.8052 412.333H25.3052V404.833H17.8052V412.333ZM29.0552 423.583H36.5552V416.083H29.0552V423.583ZM29.0552 434.833H36.5552V427.333H29.0552V434.833Z" fill="url(#i7_p12)"/>
  </g>
</svg>