<svg xmlns="http://www.w3.org/2000/svg" width="44" height="44" viewBox="0 0 44 44.0" fill="none">
  <defs>
    <linearGradient id="i16_p24" x1="22.6742" y1="1008.39" x2="9.04754" y2="1022.42" gradientUnits="userSpaceOnUse">
<stop stop-color="#AE92FF"/>
<stop offset="1" stop-color="#7694FF"/>
</linearGradient>
    <linearGradient id="i16_p25" x1="26.8303" y1="1018.35" x2="10.6622" y2="1035.28" gradientUnits="userSpaceOnUse">
<stop stop-color="#AE92FF"/>
<stop offset="1" stop-color="#7694FF"/>
</linearGradient>
    <linearGradient id="i16_p26" x1="36.3315" y1="1027.95" x2="25.6922" y2="1033.14" gradientUnits="userSpaceOnUse">
<stop stop-color="#AE92FF"/>
<stop offset="1" stop-color="#7694FF"/>
</linearGradient>
  </defs>
  <g transform="translate(0,-994.4)">
    <path fill-rule="evenodd" clip-rule="evenodd" d="M23.8146 1008.83H20.8626V1006.33H28.7792V1014.25H26.2792V1011.09L13.3856 1023.18L3.91431 1014.65L6.14419 1012.18L13.3396 1018.65L23.8146 1008.83Z" fill="url(#i16_p24)"/>
    <path fill-rule="evenodd" clip-rule="evenodd" d="M29.1961 1015.91H34.1961V1022.62C33.9218 1022.59 33.6438 1022.58 33.3628 1022.58C31.859 1022.58 30.4438 1022.94 29.1961 1023.57V1015.91ZM34.1961 1025.97V1027.58H29.2589C30.3085 1026.55 31.7539 1025.91 33.3628 1025.91C33.646 1025.91 33.9242 1025.93 34.1961 1025.97ZM25.8628 1026.45V1020.91H20.8628V1035.91H25.196C24.5558 1034.66 24.1961 1033.25 24.1961 1031.75C24.1961 1029.77 24.8115 1027.94 25.8628 1026.45ZM4.19604 1024.25H9.19602V1035.91H4.19604V1024.25ZM17.5294 1027.58H12.5294V1035.91H17.5294V1027.58Z" fill="url(#i16_p25)"/>
    <path fill-rule="evenodd" clip-rule="evenodd" d="M31.696 1042.58C31.196 1042.58 30.8627 1042.16 30.8627 1041.75V1040.91H35.8627V1041.75C35.8627 1042.16 35.5294 1042.58 35.0294 1042.58H31.696ZM27.5294 1031.75C27.5294 1028.5 30.1127 1025.91 33.3627 1025.91C36.6127 1025.91 39.196 1028.5 39.196 1031.75C39.196 1033.66 38.196 1035.41 36.696 1036.5V1038.41C36.696 1038.83 36.3627 1039.25 35.8627 1039.25H30.8627C30.3627 1039.25 30.0294 1038.83 30.0294 1038.41V1036.5C28.5294 1035.5 27.5294 1033.75 27.5294 1031.75ZM33.3627 1035.08C35.2036 1035.08 36.696 1033.59 36.696 1031.75C36.696 1029.91 35.2036 1028.41 33.3627 1028.41C31.5217 1028.41 30.0293 1029.91 30.0293 1031.75C30.0293 1033.59 31.5217 1035.08 33.3627 1035.08Z" fill="url(#i16_p26)"/>
  </g>
</svg>