<svg xmlns="http://www.w3.org/2000/svg" width="44" height="44" viewBox="0 0 44 44.0" fill="none">
  <defs>
    <linearGradient id="i11_p19" x1="29.788" y1="680.534" x2="5.21312" y2="697.686" gradientUnits="userSpaceOnUse">
<stop stop-color="#B399FF"/>
<stop offset="1" stop-color="#809BFF"/>
</linearGradient>
  </defs>
  <g transform="translate(0,-666.5)">
    <path fill-rule="evenodd" clip-rule="evenodd" d="M8.82112 705.499V680.031H34.2893V705.499H8.82112ZM5.37891 678.31C5.37891 677.359 6.14947 676.588 7.1 676.588H36.0104C36.9609 676.588 37.7315 677.359 37.7315 678.31V707.22C37.7315 708.17 36.9609 708.941 36.0104 708.941H7.1C6.14947 708.941 5.37891 708.17 5.37891 707.22V678.31ZM30.8098 683.095C31.4658 683.722 31.4941 684.76 30.8732 685.422L24.8264 691.866L20.9663 687.978C20.2982 687.305 20.3001 686.219 20.9705 685.548L21.0708 685.448C21.7446 684.774 22.8377 684.776 23.5091 685.452L24.8264 686.779L28.5004 683.119C29.1361 682.485 30.161 682.475 30.8098 683.095ZM31.0953 694.216C31.7779 694.899 31.7657 696.009 31.0682 696.677L24.8264 702.65L20.9663 698.762C20.2982 698.089 20.3001 697.003 20.9705 696.333L21.0708 696.232C21.7446 695.558 22.8377 695.56 23.5091 696.237L24.8264 697.563L28.4264 693.977C29.0988 693.307 30.1868 693.308 30.8581 693.979L31.0953 694.216ZM12.5686 685.575H17.9607V689.17H12.5686V685.575ZM17.9607 696.358H12.5686V699.953H17.9607V696.358Z" fill="url(#i11_p19)"/>
  </g>
</svg>