<svg xmlns="http://www.w3.org/2000/svg" width="44" height="44" viewBox="0 0 44 44.0" fill="none">
  <defs>
    <linearGradient id="i22_p52" x1="33.7386" y1="1560.86" x2="1.94544" y2="1583" gradientUnits="userSpaceOnUse">
<stop stop-color="#B399FF"/>
<stop offset="1" stop-color="#809BFF"/>
</linearGradient>
    <linearGradient id="i22_p53" x1="33.7386" y1="1560.86" x2="1.94543" y2="1583" gradientUnits="userSpaceOnUse">
<stop stop-color="#B399FF"/>
<stop offset="1" stop-color="#809BFF"/>
</linearGradient>
    <linearGradient id="i22_p54" x1="33.7386" y1="1560.86" x2="1.94545" y2="1583" gradientUnits="userSpaceOnUse">
<stop stop-color="#B399FF"/>
<stop offset="1" stop-color="#809BFF"/>
</linearGradient>
    <linearGradient id="i22_p55" x1="33.7386" y1="1560.86" x2="1.94543" y2="1583" gradientUnits="userSpaceOnUse">
<stop stop-color="#B399FF"/>
<stop offset="1" stop-color="#809BFF"/>
</linearGradient>
  </defs>
  <g transform="translate(0,-1546.9)">
    <path fill-rule="evenodd" clip-rule="evenodd" d="M36.7236 1579.29C36.9435 1579.29 37.1414 1579.47 37.1855 1579.69L37.5378 1582.11C38.1096 1582.35 38.6374 1582.66 39.1212 1583.01L41.4759 1582.09C41.6956 1582.02 41.9372 1582.09 42.0474 1582.28L43.9402 1585.45C44.0499 1585.63 44.006 1585.89 43.8306 1586.02L41.8283 1587.54C41.8941 1587.83 41.8949 1588.14 41.8949 1588.44C41.8948 1588.75 41.8721 1589.06 41.8283 1589.34H41.8498L43.8306 1590.86C44.006 1591.02 44.0495 1591.24 43.9402 1591.46L42.0474 1594.63C41.9374 1594.85 41.6959 1594.91 41.4759 1594.84L39.1212 1593.92C38.6373 1594.29 38.1098 1594.6 37.5378 1594.82L37.1855 1597.24C37.1631 1597.49 36.9653 1597.64 36.7236 1597.64H32.9617C32.742 1597.64 32.5441 1597.46 32.4998 1597.24L32.1474 1594.82C31.5756 1594.58 31.0479 1594.27 30.564 1593.92L28.2093 1594.84C28.0113 1594.91 27.7478 1594.85 27.6378 1594.63L25.7451 1591.46C25.6358 1591.26 25.6811 1591 25.8568 1590.86L27.857 1589.34C27.7913 1589.06 27.7925 1588.73 27.7925 1588.44C27.7925 1588.14 27.8366 1587.83 27.8806 1587.54L25.8783 1586.02C25.6803 1585.89 25.6587 1585.65 25.7687 1585.45L27.6378 1582.28C27.7479 1582.09 27.9897 1582.02 28.2093 1582.09L30.564 1583.01C31.0479 1582.66 31.5756 1582.33 32.1474 1582.11L32.4998 1579.69C32.5438 1579.45 32.7198 1579.29 32.9617 1579.29H36.7236ZM34.8093 1585.01C32.8516 1585.01 31.2687 1586.55 31.2687 1588.44C31.2692 1590.34 32.8739 1591.88 34.8093 1591.88C36.767 1591.88 38.3516 1590.34 38.3521 1588.44C38.3521 1586.55 36.7453 1585.01 34.8093 1585.01Z" fill="url(#i22_p52)"/>
    <path d="M31.5544 1555.75C35.6022 1555.75 38.8806 1559.03 38.8806 1563.08V1566.75H40.7068C41.7183 1566.75 42.5308 1567.57 42.5308 1568.58V1575.9C42.5306 1576.87 41.7623 1577.69 40.7949 1577.73C39.1009 1576.52 37.0528 1575.75 34.8308 1575.57V1563.08C34.8308 1561.25 33.3568 1559.78 31.5308 1559.78H13.2068C11.3808 1559.78 9.90679 1561.25 9.90679 1563.08V1581.43C9.90679 1583.25 11.3808 1584.73 13.2068 1584.73L13.1832 1584.7H22.314C22.0941 1585.58 21.9832 1586.51 21.9832 1587.45C21.9832 1587.87 22.0058 1588.31 22.0498 1588.73H12.8093C9.06959 1588.53 6.05504 1585.52 5.85698 1581.78V1577.73H4.03081C3.0194 1577.73 2.20697 1576.92 2.20679 1575.9V1568.58C2.20679 1567.57 3.02044 1566.75 4.05444 1566.75H5.88062V1563.08C5.88062 1559.03 9.15879 1555.75 13.2068 1555.75H31.5544Z" fill="url(#i22_p53)"/>
    <path d="M16.3306 1567.21C17.4743 1567.21 18.3974 1568.01 18.3974 1568.95V1574.14C18.3969 1575.11 17.4739 1575.88 16.3306 1575.88C15.187 1575.88 14.2622 1575.09 14.2617 1574.14V1568.95C14.2617 1567.98 15.1866 1567.21 16.3306 1567.21Z" fill="url(#i22_p54)"/>
    <path d="M28.7593 1567.21C29.9033 1567.21 30.8283 1568.01 30.8283 1568.95V1574.14C30.8277 1575.11 29.903 1575.88 28.7593 1575.88C27.6159 1575.88 26.6931 1575.09 26.6925 1574.14V1568.95C26.6925 1567.98 27.6156 1567.21 28.7593 1567.21Z" fill="url(#i22_p55)"/>
  </g>
</svg>