<svg xmlns="http://www.w3.org/2000/svg" width="44" height="44" viewBox="0 0 44 44.0" fill="none">
  <defs>
    <linearGradient id="i23_p56" x1="32.4474" y1="1643.36" x2="0.73489" y2="1664.02" gradientUnits="userSpaceOnUse">
<stop stop-color="#B399FF"/>
<stop offset="1" stop-color="#809BFF"/>
</linearGradient>
    <linearGradient id="i23_p57" x1="32.4474" y1="1643.36" x2="0.73489" y2="1664.02" gradientUnits="userSpaceOnUse">
<stop stop-color="#B399FF"/>
<stop offset="1" stop-color="#809BFF"/>
</linearGradient>
    <linearGradient id="i23_p58" x1="32.4474" y1="1643.36" x2="0.73489" y2="1664.02" gradientUnits="userSpaceOnUse">
<stop stop-color="#B399FF"/>
<stop offset="1" stop-color="#809BFF"/>
</linearGradient>
  </defs>
  <g transform="translate(0,-1629.4)">
    <path d="M26.9354 1649.45C27.2797 1649.45 27.6243 1649.47 27.9677 1649.5C29.1668 1649.6 29.6542 1650.98 28.9706 1651.9C28.5976 1652.41 27.9746 1652.63 27.3778 1652.61C27.2336 1652.61 27.0871 1652.61 26.9354 1652.61C23.9153 1652.61 21.3642 1653.65 19.2704 1655.75C17.1765 1657.84 16.1308 1660.39 16.1307 1663.41C16.1307 1664.36 16.2598 1665.28 16.5184 1666.19C16.7673 1667.07 17.1161 1667.91 17.5624 1668.71H36.2792C36.7449 1667.93 37.0973 1667.1 37.3348 1666.21C37.5825 1665.29 37.7059 1664.36 37.7059 1663.41C37.7059 1661.92 37.4195 1660.51 36.8456 1659.16C36.3802 1658.06 35.7482 1657.08 34.9501 1656.2C34.5574 1655.78 34.3653 1655.18 34.5057 1654.6C34.6456 1654.02 35.0619 1653.6 35.5516 1653.44C36.0443 1653.28 36.6112 1653.38 37.0311 1653.82C37.9888 1654.82 38.7815 1655.95 39.4091 1657.22C40.3738 1659.16 40.8567 1661.22 40.8573 1663.41C40.8806 1664.66 40.7293 1665.89 40.4032 1667.07C40.0777 1668.26 39.5999 1669.39 38.9725 1670.46L38.9735 1670.46C38.7032 1670.92 38.3371 1671.28 37.8768 1671.52C37.423 1671.75 36.9274 1671.86 36.3934 1671.86H17.4442C16.91 1671.86 16.4138 1671.75 15.9598 1671.52C15.4996 1671.28 15.1335 1670.92 14.8632 1670.46L14.8612 1670.45C14.2578 1669.36 13.7939 1668.23 13.4686 1667.06C13.1427 1665.88 12.9794 1664.67 12.9794 1663.41C12.9794 1661.48 13.3455 1659.67 14.079 1657.97C14.8108 1656.27 15.8048 1654.79 17.0614 1653.54C18.318 1652.28 19.7953 1651.29 21.4911 1650.55C23.1908 1649.82 25.0066 1649.45 26.9354 1649.45Z" fill="url(#i23_p56)"/>
    <path d="M32.455 1651.7C32.7765 1651.29 33.4307 1651.57 33.3251 1652.09C33.3198 1652.11 33.3147 1652.14 33.3094 1652.16C32.9846 1653.73 32.6345 1655.29 32.2596 1656.84C31.7209 1659.06 31.1188 1661.29 30.454 1663.51C30.2247 1664.27 29.7378 1664.79 28.993 1665.07C28.2479 1665.36 27.5079 1665.34 26.7743 1665.02C25.995 1664.68 25.4674 1664.12 25.1923 1663.34C24.9171 1662.56 25.0091 1661.84 25.4677 1661.17C26.7974 1659.27 28.1445 1657.4 29.5087 1655.57C30.4709 1654.27 31.4528 1652.98 32.455 1651.7Z" fill="url(#i23_p57)"/>
    <path d="M35.6112 1638.14C37.4445 1638.14 38.9442 1639.64 38.9442 1641.47V1650.94C37.943 1649.98 36.8245 1649.13 35.6112 1648.43V1641.47H8.94421V1659.8H10.0175C9.79948 1660.89 9.68347 1662.01 9.68347 1663.15C9.68351 1663.71 9.71079 1664.26 9.76062 1664.8H2.2782V1659.8H5.61121V1641.47C5.61121 1639.64 7.11114 1638.14 8.94421 1638.14H35.6112Z" fill="url(#i23_p58)"/>
  </g>
</svg>